<?xml version="1.0" encoding="UTF-8" standalone="no"?>
<!DOCTYPE svg PUBLIC "-//W3C//DTD SVG 1.1//EN" "http://www.w3.org/Graphics/SVG/1.1/DTD/svg11.dtd">
<!-- Created with Vectornator (http://vectornator.io/) -->
<svg height="100%" stroke-miterlimit="10" style="fill-rule:nonzero;clip-rule:evenodd;stroke-linecap:round;stroke-linejoin:round;" version="1.1" viewBox="0 0 2072.14 1898.54" width="100%" xml:space="preserve" xmlns="http://www.w3.org/2000/svg" xmlns:vectornator="http://vectornator.io" xmlns:xlink="http://www.w3.org/1999/xlink">
<defs/>
<clipPath id="ArtboardFrame">
<rect height="1898.54" width="2072.14" x="0" y="0"/>
</clipPath>
<g clip-path="url(#ArtboardFrame)" id="Layer-1" vectornator:layerName="Layer 1">
<g opacity="1" vectornator:layerName="Group 1">
<path d="M207.694 407.917C207.694 353.061 250.573 308.591 303.467 308.591C356.361 308.591 399.24 353.061 399.24 407.917C399.24 462.774 356.361 507.244 303.467 507.244C250.573 507.244 207.694 462.774 207.694 407.917Z" fill="#000000" fill-rule="nonzero" opacity="1" stroke="#000000" stroke-linecap="butt" stroke-linejoin="round" stroke-width="10" vectornator:layerName="Oval 8"/>
<path d="M1161.7 209.264C1161.7 99.5506 1247.45 10.6104 1353.24 10.6104C1459.03 10.6104 1544.79 99.5506 1544.79 209.264C1544.79 318.977 1459.03 407.917 1353.24 407.917C1247.45 407.917 1161.7 318.977 1161.7 209.264Z" fill="#000000" fill-rule="nonzero" opacity="1" stroke="#000000" stroke-linecap="butt" stroke-linejoin="round" stroke-width="10" vectornator:layerName="Oval 10"/>
<path d="M1257.47 1398.01C1257.47 1342.1 1300.35 1296.78 1353.24 1296.78C1406.14 1296.78 1449.01 1342.1 1449.01 1398.01C1449.01 1453.92 1406.14 1499.24 1353.24 1499.24C1300.35 1499.24 1257.47 1453.92 1257.47 1398.01Z" fill="#000000" fill-rule="nonzero" opacity="1" stroke="#000000" stroke-linecap="butt" stroke-linejoin="round" stroke-width="10" vectornator:layerName="Oval 12"/>
<path d="M1666.64 795.634C1666.64 685.92 1752.4 596.98 1858.19 596.98C1963.97 596.98 2049.73 685.92 2049.73 795.634C2049.73 905.347 1963.97 994.287 1858.19 994.287C1752.4 994.287 1666.64 905.347 1666.64 795.634Z" fill="#000000" fill-rule="nonzero" opacity="1" stroke="#000000" stroke-linecap="butt" stroke-linejoin="round" stroke-width="10" vectornator:layerName="Oval 13"/>
<path d="M832.702 407.917C832.702 353.061 873.831 308.591 924.566 308.591C975.301 308.591 1016.43 353.061 1016.43 407.917C1016.43 462.774 975.301 507.244 924.566 507.244C873.831 507.244 832.702 462.774 832.702 407.917Z" fill="#000000" fill-rule="nonzero" opacity="1" stroke="#000000" stroke-linecap="butt" stroke-linejoin="round" stroke-width="10" vectornator:layerName="Oval 14"/>
<path d="M656.218 1697.9C656.218 1588.18 741.976 1499.24 847.764 1499.24C953.552 1499.24 1039.31 1588.18 1039.31 1697.9C1039.31 1807.61 953.552 1896.55 847.764 1896.55C741.976 1896.55 656.218 1807.61 656.218 1697.9Z" fill="#000000" fill-rule="nonzero" opacity="1" stroke="#000000" stroke-linecap="butt" stroke-linejoin="round" stroke-width="10" vectornator:layerName="Oval 15"/>
<path d="M16.1488 999.158C16.1488 889.445 101.907 800.505 207.694 800.505C313.482 800.505 399.24 889.445 399.24 999.158C399.24 1108.87 313.482 1197.81 207.694 1197.81C101.907 1197.81 16.1488 1108.87 16.1488 999.158Z" fill="#000000" fill-rule="nonzero" opacity="1" stroke="#000000" stroke-linecap="butt" stroke-linejoin="round" stroke-width="10" vectornator:layerName="Oval 16"/>
<path d="M778.605 994.287C778.605 884.574 864.363 795.634 970.151 795.634C1075.94 795.634 1161.7 884.574 1161.7 994.287C1161.7 1104 1075.94 1192.94 970.151 1192.94C864.363 1192.94 778.605 1104 778.605 994.287Z" fill="#000000" fill-rule="nonzero" opacity="1" stroke="#000000" stroke-linecap="butt" stroke-linejoin="round" stroke-width="10" vectornator:layerName="Oval 17"/>
<path d="M1340.97 218.222C1322.53 218.222 1316.59 247.546 1310.29 265.253C1222.98 510.608 1102.83 727.326 990.314 957.273L1340.97 218.222Z" fill="none" opacity="1" stroke="#000000" stroke-linecap="round" stroke-linejoin="round" stroke-width="99.0404" vectornator:layerName="Curve 1"/>
<path d="M1047.3 986.387C1010.92 973.996 1110.22 964.483 1117.43 963.992C1182.26 959.575 1240.53 938.579 1303.71 923.68C1466.34 885.33 1676.09 800.505 1840.65 800.505L1047.3 986.387Z" fill="none" opacity="1" stroke="#000000" stroke-linecap="round" stroke-linejoin="round" stroke-width="99.0404" vectornator:layerName="Curve 2"/>
<path d="M225.446 1002.06C203.446 979.583 413.744 996.159 455.564 993.106C615.2 981.454 782.031 981.908 942.099 981.908L225.446 1002.06Z" fill="none" opacity="1" stroke="#000000" stroke-linecap="round" stroke-linejoin="round" stroke-width="110.033" vectornator:layerName="Curve 3"/>
<path d="M238.596 1046.86C229.164 1030.79 411.888 1208.4 446.798 1241.7C489.474 1282.4 903.83 1720.96 924.566 1720.96L238.596 1046.86Z" fill="none" opacity="1" stroke="#000000" stroke-linecap="round" stroke-linejoin="round" stroke-width="105.636" vectornator:layerName="Curve 4"/>
<path d="M216.68 1046.86C211.654 1049.42 227.75 872.915 229.829 845.296C238.108 735.314 326.24 482.448 282.428 392.907L216.68 1046.86Z" fill="none" opacity="1" stroke="#000000" stroke-linecap="round" stroke-linejoin="round" stroke-width="52.8713" vectornator:layerName="Curve 5"/>
<path d="M939.907 410.823C929.623 410.823 1053.98 343.574 1073.59 332.439C1148.16 290.106 1221.41 241.237 1297.14 202.545L939.907 410.823Z" fill="none" opacity="1" stroke="#000000" stroke-linecap="round" stroke-linejoin="round" stroke-width="52.8713" vectornator:layerName="Curve 6"/>
<path d="M957.44 1026.7C956.076 1026 1048.9 1123.4 1091.13 1156.59C1200.62 1242.66 1311.08 1332.89 1369.46 1452.21L957.44 1026.7Z" fill="none" opacity="1" stroke="#000000" stroke-linecap="round" stroke-linejoin="round" stroke-width="52.8713" vectornator:layerName="Curve 7"/>
</g>
<path d="M278.171 591.643C278.171 575.522 238.524 803.856 238.524 879.514" fill="none" opacity="1" stroke="#000000" stroke-linecap="round" stroke-linejoin="round" stroke-width="52.8713" vectornator:layerName="Curve 1"/>
<path d="M283.342 445.122C272.778 413.432 278.171 572.048 278.171 605.433C278.171 715.333 217.805 834.563 245.419 945.018" fill="none" opacity="1" stroke="#000000" stroke-linecap="round" stroke-linejoin="round" stroke-width="52.8713" vectornator:layerName="Curve 2"/>
<path d="M271.275 896.752C251.043 856.287 259.327 650.015 278.171 612.329" fill="none" opacity="1" stroke="#000000" stroke-linecap="round" stroke-linejoin="round" stroke-width="52.8713" vectornator:layerName="Curve 3"/>
<path d="M250.59 884.685C247.49 897.087 256.985 817.788 259.209 793.325C265.498 724.143 270.193 655.021 281.618 586.472" fill="none" opacity="1" stroke="#000000" stroke-linecap="round" stroke-linejoin="round" stroke-width="52.8713" vectornator:layerName="Curve 4"/>
</g>
</svg>
