<?xml version="1.0" encoding="UTF-8" standalone="no"?>
<!DOCTYPE svg PUBLIC "-//W3C//DTD SVG 1.1//EN" "http://www.w3.org/Graphics/SVG/1.1/DTD/svg11.dtd">
<!-- Created with Vectornator (http://vectornator.io/) -->
<svg height="100%" stroke-miterlimit="10" style="fill-rule:nonzero;clip-rule:evenodd;stroke-linecap:round;stroke-linejoin:round;" version="1.1" viewBox="0 0 2899.28 1170.95" width="100%" xml:space="preserve" xmlns="http://www.w3.org/2000/svg" xmlns:vectornator="http://vectornator.io" xmlns:xlink="http://www.w3.org/1999/xlink">
<defs/>
<g id="Layer-1" vectornator:layerName="Layer 1">
<path d="M81.8251 228.794L843.096 228.794L843.096 948.116L81.8251 948.116L81.8251 228.794Z" fill="#ff3333" fill-rule="nonzero" opacity="1" stroke="none" vectornator:layerName="Rectangle 1"/>
<path d="M1140.69 759.212C1140.69 714.238 1195.25 677.779 1262.56 677.779C1329.86 677.779 1384.43 714.238 1384.43 759.212C1384.43 804.186 1329.86 840.645 1262.56 840.645C1195.25 840.645 1140.69 804.186 1140.69 759.212Z" fill="#000000" fill-rule="nonzero" opacity="1" stroke="#000000" stroke-linecap="butt" stroke-linejoin="round" stroke-width="10" vectornator:layerName="Oval 1"/>
<path d="M1375.27 761.453C1365.75 761.453 1367.8 668.273 1367.8 655.366C1367.8 583.538 1367.83 510.171 1373.78 438.71C1375.93 412.958 1374.47 349.18 1385.73 326.647" fill="none" opacity="1" stroke="#000000" stroke-linecap="round" stroke-linejoin="round" stroke-width="36.3824" vectornator:layerName="Curve 1"/>
<path d="M1382.75 328.141C1376.92 316.481 1401.3 357.766 1406.65 365.495C1426.37 393.972 1437.38 421.134 1451.48 452.158C1455.07 460.051 1476.3 492.249 1473.89 485.03" fill="none" opacity="1" stroke="#000000" stroke-linecap="round" stroke-linejoin="round" stroke-width="36.3824" vectornator:layerName="Curve 2"/>
<path d="M1427.97 661.926C1427.97 616.952 1482.53 580.493 1549.84 580.493C1617.14 580.493 1671.7 616.952 1671.7 661.926C1671.7 706.9 1617.14 743.359 1549.84 743.359C1482.53 743.359 1427.97 706.9 1427.97 661.926Z" fill="#000000" fill-rule="nonzero" opacity="1" stroke="#000000" stroke-linecap="butt" stroke-linejoin="round" stroke-width="10" vectornator:layerName="Oval 2"/>
<path d="M1662.55 664.167C1653.03 664.167 1655.08 570.988 1655.08 558.08C1655.08 486.253 1655.1 412.885 1661.06 341.424C1663.2 315.672 1661.74 251.894 1673.01 229.361" fill="none" opacity="1" stroke="#000000" stroke-linecap="round" stroke-linejoin="round" stroke-width="36.3824" vectornator:layerName="Curve 3"/>
<path d="M1670.02 230.855C1664.19 219.195 1688.58 260.48 1693.93 268.209C1713.64 296.686 1724.65 323.848 1738.76 354.872C1742.34 362.765 1763.57 394.963 1761.17 387.744" fill="none" opacity="1" stroke="#000000" stroke-linecap="round" stroke-linejoin="round" stroke-width="36.3824" vectornator:layerName="Curve 4"/>
<path d="M970.351 800.302C962.791 785.18 1032.47 784.676 1040.58 783.866C1122.64 775.659 1205.15 787.533 1287.12 777.889C1405.76 763.931 1524.03 745.897 1642.73 733.064C1738.45 722.716 1837.86 730.924 1932.6 715.133" fill="none" opacity="1" stroke="#000000" stroke-linecap="round" stroke-linejoin="round" stroke-width="36.3824" vectornator:layerName="Curve 5"/>
<path d="M970.351 619.506C943.706 606.183 1070.8 603.182 1071.96 603.07C1129.25 597.525 1185.54 588.892 1242.29 579.163C1433.59 546.368 1634.12 538.82 1828.01 538.82" fill="none" opacity="1" stroke="#000000" stroke-linecap="round" stroke-linejoin="round" stroke-width="36.3824" vectornator:layerName="Curve 6"/>
<g opacity="1" vectornator:layerName="Group 1">
<path d="M2128.66 791.133L2659.74 656.755L2704.72 842.418L2173.64 976.796L2128.66 791.133Z" fill="#8e4e06" fill-rule="nonzero" opacity="1" stroke="#8e4e06" stroke-linecap="round" stroke-linejoin="round" stroke-width="35.7542" vectornator:layerName="Rectangle 2"/>
</g>
<path d="M2707.24 861.744C2695.56 826.721 2724.17 797.996 2728.16 766.116C2731.16 742.09 2733.3 719.805 2738.62 695.89C2742.22 679.675 2745.56 653.953 2740.11 637.617C2738.41 632.526 2737.12 628.066 2737.12 622.675C2737.12 620.185 2738.88 613.443 2737.12 615.204C2715.48 636.844 2749.97 766.517 2714.71 790.023C2712.3 791.63 2713.08 751.255 2713.22 749.68C2715.9 717.522 2724.88 688.097 2732.64 657.041C2732.79 656.431 2740.89 619.002 2737.12 619.687C2714.97 623.714 2688.46 657.744 2674.37 674.971C2673.04 676.594 2649.56 703.954 2647.47 701.867C2645.89 700.283 2655.96 690.453 2656.44 689.913C2667.75 676.979 2694.68 636.123 2716.2 636.123C2720.22 636.123 2709.34 640.304 2705.74 642.099C2699.65 645.145 2693.79 649.297 2687.81 652.559C2670.21 662.16 2640.55 671.436 2626.55 685.431C2622.14 689.843 2637.88 680.044 2642.99 676.466C2645.6 674.637 2647.88 672.365 2650.46 670.489C2655.61 666.745 2718.09 622.356 2719.19 625.663C2722.46 635.461 2662.74 670.489 2653.45 670.489C2651.65 670.489 2656.37 668.391 2657.93 667.5C2662.61 664.828 2666.83 661.428 2671.38 658.535C2674.47 656.57 2707.24 634.872 2707.24 643.594C2707.24 668.318 2658.67 724.638 2677.36 752.669C2678.58 754.508 2691.32 727.895 2692.3 725.774C2699.4 710.384 2704.27 693.836 2710.23 677.96C2713.55 669.111 2719.19 651.064 2719.19 651.064C2719.19 651.064 2719.52 655.076 2719.19 657.041C2717.42 667.649 2713.39 677.572 2711.72 688.419C2708.64 708.468 2708.73 727.946 2708.73 748.186C2708.73 757.223 2707.61 767.553 2708.73 776.576C2709.05 779.096 2708.43 785.842 2710.23 784.047C2720.39 773.884 2722.75 749.21 2728.16 736.233C2730.34 730.991 2737.72 717.257 2732.64 719.797C2717.95 727.14 2709.42 809.838 2701.26 828.872C2699.92 831.997 2687.94 852.842 2693.79 855.767C2697.9 857.821 2701.37 842.32 2696.78 842.32C2693.2 842.32 2675.29 864.248 2665.4 866.226C2621.33 875.041 2576.62 881.433 2530.93 887.145C2510.05 889.754 2488.27 899.869 2468.17 906.569C2406.55 927.111 2345.35 943.474 2284.39 966.337C2257.44 976.442 2225.61 974.805 2200.71 987.255" fill="none" opacity="1" stroke="#8e4e06" stroke-linecap="round" stroke-linejoin="round" stroke-width="35.7542" vectornator:layerName="Curve 7"/>
<path d="M2115.54 803.471C2115.42 803.228 2107.42 788.529 2111.06 788.529C2116.66 788.529 2112.68 825.673 2112.56 827.378C2110.09 861.839 2114.19 896.089 2111.06 930.476C2109.67 945.748 2110.06 963.307 2112.56 978.29C2112.96 980.746 2115.28 986.028 2117.04 984.267C2119.48 981.828 2131.93 911.752 2133.47 905.075C2135.54 896.121 2137.21 887.15 2139.45 878.18C2140.21 875.124 2141.03 866.397 2142.44 869.215C2150.57 885.473 2139.45 928.549 2139.45 946.912C2139.45 957.383 2137.96 978.29 2137.96 978.29C2137.96 978.29 2140.79 968.281 2142.44 963.348C2146.85 950.113 2153.08 939.157 2160.37 927.488C2161.53 925.625 2166.51 913.806 2170.83 915.534C2192.12 924.052 2157.37 966.947 2151.4 975.302C2150.17 977.034 2133.99 991.738 2140.94 991.738C2154.6 991.738 2211.62 944.723 2226.11 954.383C2228.44 955.932 2221.27 962.218 2220.14 963.348C2203.11 980.377 2174.59 985.596 2154.39 997.714C2149.41 1000.7 2134.26 1004.08 2139.45 1006.68C2142.26 1008.08 2247.54 958.142 2188.76 984.267C2183.67 986.528 2178.89 989.433 2173.82 991.738C2167.92 994.417 2161.68 996.313 2155.89 999.209C2147.57 1003.37 2140.28 1008.5 2131.98 1012.66" fill="none" opacity="1" stroke="#8e4e06" stroke-linecap="round" stroke-linejoin="round" stroke-width="35.7542" vectornator:layerName="Curve 8"/>
<g opacity="1" vectornator:layerName="Group 2">
<path d="M2118.8 493.791L2649.89 359.413L2694.86 545.076L2163.78 679.454L2118.8 493.791Z" fill="#8e4e06" fill-rule="nonzero" opacity="1" stroke="#8e4e06" stroke-linecap="round" stroke-linejoin="round" stroke-width="35.7542" vectornator:layerName="Rectangle 2"/>
</g>
<path d="M2697.38 564.402C2685.71 529.379 2714.32 500.655 2718.3 468.774C2721.3 444.749 2723.45 422.463 2728.76 398.548C2732.36 382.333 2735.7 356.611 2730.25 340.275C2728.56 335.184 2727.27 330.724 2727.27 325.333C2727.27 322.843 2729.03 316.101 2727.27 317.862C2705.63 339.502 2740.11 469.175 2704.85 492.681C2702.44 494.288 2703.23 453.913 2703.36 452.338C2706.04 420.18 2715.02 390.755 2722.78 359.699C2722.94 359.089 2731.03 321.66 2727.27 322.345C2705.11 326.373 2678.61 360.402 2664.51 377.629C2663.18 379.252 2639.7 406.612 2637.62 404.525C2636.03 402.941 2646.11 393.111 2646.58 392.571C2657.9 379.637 2684.82 338.781 2706.35 338.781C2710.36 338.781 2699.48 342.962 2695.89 344.758C2689.8 347.803 2683.94 351.955 2677.96 355.217C2660.36 364.818 2630.69 374.094 2616.7 388.089C2612.28 392.502 2628.02 382.702 2633.13 379.124C2635.75 377.295 2638.02 375.023 2640.6 373.147C2645.75 369.403 2708.23 325.014 2709.34 328.322C2712.6 338.119 2652.88 373.147 2643.59 373.147C2641.8 373.147 2646.52 371.05 2648.07 370.159C2652.75 367.486 2656.98 364.086 2661.52 361.193C2664.61 359.228 2697.38 337.53 2697.38 346.252C2697.38 370.976 2648.81 427.297 2667.5 455.327C2668.72 457.166 2681.46 430.553 2682.44 428.432C2689.54 413.042 2694.42 396.494 2700.37 380.618C2703.69 371.77 2709.34 353.723 2709.34 353.723C2709.34 353.723 2709.66 357.734 2709.34 359.699C2707.57 370.307 2703.53 380.23 2701.86 391.077C2698.78 411.126 2698.88 430.604 2698.88 450.844C2698.88 459.881 2697.75 470.212 2698.88 479.234C2699.19 481.754 2698.57 488.5 2700.37 486.705C2710.53 476.542 2712.89 451.868 2718.3 438.891C2720.48 433.649 2727.86 419.915 2722.78 422.455C2708.1 429.798 2699.56 512.497 2691.41 531.53C2690.07 534.655 2678.09 555.501 2683.93 558.425C2688.04 560.479 2691.51 544.978 2686.92 544.978C2683.34 544.978 2665.44 566.906 2655.55 568.885C2611.47 577.699 2566.76 584.092 2521.07 589.803C2500.19 592.412 2478.42 602.527 2458.31 609.227C2396.69 629.769 2335.5 646.132 2274.53 668.995C2247.58 679.1 2215.76 677.463 2190.86 689.913" fill="none" opacity="1" stroke="#8e4e06" stroke-linecap="round" stroke-linejoin="round" stroke-width="35.7542" vectornator:layerName="Curve 9"/>
<path d="M2105.69 506.129C2105.57 505.887 2097.56 491.187 2101.2 491.187C2106.8 491.187 2102.82 528.331 2102.7 530.036C2100.24 564.497 2104.33 598.747 2101.2 633.134C2099.82 648.406 2100.2 665.965 2102.7 680.948C2103.11 683.405 2105.42 688.686 2107.18 686.925C2109.62 684.486 2122.08 614.411 2123.62 607.733C2125.68 598.779 2127.35 589.808 2129.59 580.838C2130.36 577.782 2131.17 569.055 2132.58 571.873C2140.71 588.131 2129.59 631.207 2129.59 649.57C2129.59 660.041 2128.1 680.948 2128.1 680.948C2128.1 680.948 2130.94 670.939 2132.58 666.006C2136.99 652.771 2143.22 641.815 2150.51 630.146C2151.68 628.283 2156.65 616.464 2160.97 618.193C2182.27 626.71 2147.51 669.605 2141.55 677.96C2140.31 679.692 2124.13 694.396 2131.09 694.396C2144.74 694.396 2201.77 647.382 2216.26 657.041C2218.58 658.59 2211.41 664.876 2210.28 666.006C2193.25 683.035 2164.73 688.254 2144.54 700.372C2139.55 703.361 2124.4 706.74 2129.59 709.338C2132.4 710.742 2237.68 660.8 2178.9 686.925C2173.81 689.186 2169.03 692.091 2163.96 694.396C2158.07 697.075 2151.82 698.971 2146.03 701.867C2137.71 706.025 2130.43 711.162 2122.12 715.314" fill="none" opacity="1" stroke="#8e4e06" stroke-linecap="round" stroke-linejoin="round" stroke-width="35.7542" vectornator:layerName="Curve 10"/>
<path d="M2136.46 752.669C2115.11 741.993 2144.66 725.108 2157.38 721.291C2200.07 708.484 2249.02 713.754 2293.35 707.843C2305.8 706.184 2318.26 703.249 2330.71 701.867C2335.19 701.369 2347.34 703.562 2344.15 700.372C2337.97 694.186 2314.58 704.871 2308.29 706.349C2266.1 716.278 2224.53 727.531 2182.78 739.221C2168.49 743.222 2153.97 748.063 2139.45 751.175C2133.05 752.547 2117.95 760.378 2120.03 754.163C2123.88 742.598 2158.52 737.328 2167.84 734.739C2206.55 723.986 2245.12 718.686 2284.39 710.832C2299.89 707.731 2315.32 705.417 2330.71 701.867C2336.13 700.614 2351.08 694.941 2347.14 698.878C2341.79 704.233 2322.65 704.437 2315.76 706.349C2278.02 716.834 2240.87 729.819 2203.7 742.209C2188.18 747.382 2136.12 774.909 2118.53 766.116C2117.54 765.618 2116.62 764.162 2117.04 763.128C2130.8 728.726 2266.12 685.597 2299.33 674.971C2319.51 668.512 2340.07 662.512 2360.59 657.041C2362.21 656.61 2391.17 650.809 2390.47 652.559C2383.94 668.89 2337.35 679.231 2323.23 683.936C2312.17 687.623 2301.37 692.06 2290.36 695.89C2269.04 703.305 2244.65 708.285 2224.62 718.303C2214.44 723.392 2245.62 709.525 2256 704.855C2267.81 699.541 2279.83 694.723 2291.86 689.913C2338.68 671.184 2385.99 653.553 2433.8 637.617C2447.5 633.052 2460.15 626.175 2474.15 622.675C2478.13 621.679 2487.4 615.79 2486.1 619.687C2480.46 636.593 2362.01 671.802 2344.15 677.96C2332.08 682.121 2320.19 686.78 2308.29 691.407C2303.29 693.352 2287.99 697.384 2293.35 697.384C2316.41 697.384 2346.48 677.681 2368.06 670.489C2412.58 655.649 2457.59 642.136 2502.54 628.652C2524.5 622.062 2548.49 613.976 2571.27 610.722C2572.25 610.581 2573.81 609.831 2574.26 610.722C2576.54 615.282 2540.49 632.225 2538.4 633.134C2496.34 651.419 2453.58 666.909 2409.9 680.948C2391.97 686.709 2375.09 693.57 2357.6 700.372C2350.98 702.949 2340.82 705.9 2333.69 707.843C2331.71 708.384 2327.72 711.391 2327.72 709.338C2327.72 704.14 2353.86 693.846 2356.11 692.902C2389.72 678.747 2423.06 665.605 2457.71 654.053C2477.61 647.419 2497.59 641.257 2517.48 634.629C2524.36 632.335 2538.4 621.4 2538.4 628.652C2538.4 633.842 2502.49 648.099 2499.55 649.57C2467.85 665.42 2435 678.941 2402.43 692.902C2385.41 700.194 2368.71 708.196 2351.62 715.314C2348.28 716.709 2341.16 718.303 2341.16 718.303C2341.16 718.303 2356.18 710.461 2363.58 706.349C2380.74 696.816 2399.35 688.672 2417.37 680.948C2471.3 657.835 2528.4 639.1 2584.72 622.675C2589.25 621.352 2628.82 607.014 2634.02 612.216C2636.71 614.898 2627.07 615.239 2623.57 616.698C2615.61 620.013 2609.46 623.04 2601.15 625.663C2583.3 631.301 2565.27 636.589 2547.36 642.099C2535.62 645.711 2427.58 679.206 2423.34 674.971C2417.23 668.86 2462.68 647.107 2463.69 646.582C2504.98 625.04 2548.24 610.43 2592.19 595.78C2605.83 591.233 2618.46 587.073 2632.53 583.826C2636.44 582.923 2646.28 578.741 2644.48 582.332C2638.79 593.728 2542.33 623.525 2526.44 630.146C2515 634.916 2503.92 639.855 2492.08 643.594C2486.52 645.349 2471.52 645.448 2475.64 649.57C2478.63 652.563 2519.52 635.408 2521.96 634.629C2564.85 620.903 2607.38 605.902 2650.46 592.791C2658.32 590.4 2666.35 588.597 2674.37 586.815C2676.99 586.233 2681.84 581.144 2681.84 583.826C2681.84 589.819 2657.21 600.995 2653.45 603.251C2621.93 622.162 2590.94 642.568 2556.33 655.547C2552.05 657.151 2531.97 664.533 2526.44 666.006C2522.09 667.168 2509.53 670.388 2513 667.5C2546.76 639.36 2606.41 628.838 2647.47 618.193C2663.25 614.103 2679.8 609.907 2695.29 604.745C2700.67 602.949 2715.74 596.247 2711.72 600.262C2693.11 618.872 2654.24 626.699 2631.04 637.617C2623.17 641.321 2615.16 644.731 2607.13 648.076C2605.07 648.933 2599.58 649.489 2601.15 651.064C2604.28 654.187 2637.37 637.498 2641.5 636.123C2659.26 630.2 2679.7 623.657 2698.27 621.181C2702.25 620.65 2710.23 619.687 2710.23 619.687C2710.23 619.687 2705.36 622.025 2702.76 622.675C2692.96 625.125 2683.74 628.125 2674.37 631.64C2669.5 633.466 2654.49 634.478 2659.43 636.123C2674.72 641.222 2708.91 620.493 2716.2 607.733C2719.67 601.664 2717.7 586.815 2717.7 586.815C2717.7 586.815 2707.88 605.068 2701.26 601.757C2698.33 600.289 2708.73 565.284 2708.73 559.919" fill="none" opacity="1" stroke="#3c2102" stroke-linecap="round" stroke-linejoin="round" stroke-width="35.7542" vectornator:layerName="Curve 11"/>
<path d="M2096.12 984.267C2110.32 974.8 2108.07 942.574 2108.07 927.488C2108.07 881.227 2106.58 834.747 2106.58 788.529C2106.58 763.302 2112.56 738.875 2112.56 713.82C2112.56 711.221 2101.15 695.338 2100.6 695.89C2092.52 703.977 2102.3 736.142 2103.59 745.198C2108.8 781.696 2113.11 818.837 2111.06 855.767C2109.65 881.148 2113.61 903.786 2115.54 928.982C2116.3 938.799 2115.54 949.01 2115.54 958.866C2115.54 961.356 2115.54 966.337 2115.54 966.337C2115.54 966.337 2113.18 934.39 2111.06 918.523C2107.38 890.887 2108.07 862.71 2108.07 834.849C2108.07 757.334 2124.51 681.468 2124.51 604.745C2124.51 571.553 2105.85 551.819 2100.6 525.553C2098.71 516.119 2094.63 510.7 2094.63 500.152C2094.63 496.137 2090.29 485.359 2093.13 488.199C2106.36 501.424 2105.08 628.049 2105.08 651.064C2105.08 667.477 2103.59 683.846 2103.59 700.372C2103.59 706.15 2104.31 712.574 2103.59 718.303C2103.21 721.309 2104.81 728.623 2102.1 727.268C2093.08 722.761 2096.33 608.016 2097.61 595.78C2099.08 581.848 2102.04 567.635 2105.08 553.943C2106.06 549.54 2106.58 535.985 2106.58 540.495C2106.58 662.093 2100.6 784.081 2100.6 905.075C2100.6 932.797 2087.93 1005.57 2120.03 1021.62" fill="none" opacity="1" stroke="#3c2102" stroke-linecap="round" stroke-linejoin="round" stroke-width="35.7542" vectornator:layerName="Curve 12"/>
<path d="M2085.66 488.199C2067.63 488.199 2101.53 465.17 2105.08 462.798C2130.8 445.656 2162.06 431.995 2190.25 419.467C2262.54 387.337 2329.38 346.58 2397.94 307.403C2417.24 296.374 2437.25 283.302 2457.71 274.531C2464.37 271.678 2470.48 268.229 2477.14 265.566C2481.5 263.821 2492.41 254.773 2489.09 258.095C2468.99 278.196 2426.12 285.191 2400.93 296.944C2349.87 320.772 2302.65 351.156 2253.01 377.629C2209.41 400.885 2159.7 424.615 2124.51 459.809" fill="none" opacity="1" stroke="#3c2102" stroke-linecap="round" stroke-linejoin="round" stroke-width="35.7542" vectornator:layerName="Curve 13"/>
<path d="M2103.59 485.21C2096.07 485.21 2129.8 472.934 2136.46 470.269C2161.93 460.083 2188.16 450.544 2214.16 441.879C2288.87 416.977 2359.09 391.976 2430.82 359.699C2448.51 351.737 2466.77 344.931 2484.61 337.287C2485.63 336.848 2487.59 336.906 2487.59 335.792C2487.59 335.547 2460.58 347.229 2459.21 347.746C2445.13 353.023 2431.35 358.591 2417.37 364.182C2379.22 379.442 2342.08 397.02 2303.81 411.996C2298.15 414.21 2267.23 431.439 2260.48 426.937C2253.77 422.464 2306.7 391.066 2311.28 388.089C2361.6 355.38 2416.1 329.704 2469.66 302.92C2475.29 300.108 2513.98 285.541 2515.98 277.519C2517.58 271.12 2502.82 275.955 2502.54 276.025C2479.03 281.902 2455.81 289.845 2433.8 299.932C2388.99 320.47 2346.59 346.513 2308.29 377.629C2305.9 379.574 2279.9 396.837 2279.9 400.042C2279.9 406.961 2291.9 393.143 2297.83 389.583C2302.23 386.945 2306.84 384.681 2311.28 382.112C2334.14 368.88 2357.43 355.632 2381.51 344.758C2430.9 322.451 2481.47 301.575 2533.91 287.979C2546.98 284.59 2576.38 269.76 2590.69 274.531C2605.33 279.41 2522.52 317.572 2521.96 317.862C2475.76 341.886 2426.8 359.583 2380.01 382.112C2363.7 389.965 2346.89 396.434 2330.71 404.525C2325.73 407.015 2310.78 409.505 2315.76 411.996C2320.11 414.168 2388.53 385.081 2396.45 382.112C2451.13 361.605 2508.8 349.915 2565.29 335.792C2574.44 333.505 2615.34 318.852 2625.06 325.333C2629.18 328.079 2578.94 347.601 2574.26 349.24C2540.62 361.012 2506.74 370.243 2472.65 380.618C2460.24 384.396 2447.37 387.744 2435.3 392.571C2432.2 393.812 2423.16 395.997 2426.33 397.054C2443.5 402.776 2476.49 385.812 2492.08 380.618C2536.91 365.674 2580.97 349.762 2625.06 332.804C2648.01 323.976 2671.57 315.485 2695.29 308.897C2702.27 306.956 2723.46 302.92 2716.2 302.92C2680.41 302.92 2634.39 326.693 2601.15 338.781C2586.82 343.993 2572.35 350.746 2557.82 355.217C2553.31 356.606 2541.03 356.358 2544.37 359.699C2546.94 362.271 2636.85 332.489 2644.48 329.816C2658.03 325.074 2671.59 323.377 2684.83 317.862C2688.33 316.403 2698.44 315.484 2695.29 313.38C2677.98 301.84 2571.37 342.75 2553.34 349.24C2538.5 354.583 2523.36 358.878 2508.51 364.182C2503.02 366.143 2497.54 368.112 2492.08 370.159C2490.6 370.712 2486.19 372.357 2487.59 371.653C2505.23 362.837 2525.71 359.617 2544.37 353.723C2558.5 349.261 2571.74 344.985 2586.21 341.769C2592.7 340.328 2599.15 338.728 2605.63 337.287C2607.64 336.841 2613.67 335.792 2611.61 335.792C2543.65 335.792 2471.15 376.139 2408.4 397.054C2403.64 398.64 2365.98 415.894 2362.08 411.996C2357.83 407.74 2372.96 406.839 2378.52 404.525C2386.24 401.308 2392.89 398.074 2400.93 395.56C2422.64 388.777 2444.76 382.222 2466.68 376.135C2474.72 373.901 2496.49 374.568 2490.58 368.664C2482.64 360.726 2450.71 376.789 2442.77 379.124C2395.46 393.037 2348.03 412.301 2303.81 434.408" fill="none" opacity="1" stroke="#3c2102" stroke-linecap="round" stroke-linejoin="round" stroke-width="35.7542" vectornator:layerName="Curve 14"/>
<path d="M2489.09 295.45C2489.09 281.566 2494.77 275.725 2511.5 271.543C2513.49 271.045 2517.48 270.048 2517.48 270.048C2517.48 270.048 2512.42 270.74 2510.01 271.543C2499.06 275.192 2488.88 279.863 2478.63 284.99C2452.28 298.166 2426.55 312.188 2400.93 326.827C2362 349.075 2318.07 356.307 2278.41 376.135C2247.28 391.699 2211.96 415.533 2178.3 423.949C2168.3 426.449 2106.04 466.263 2105.08 465.786C2104.57 465.528 2134.2 434.005 2136.46 431.42C2157.59 407.277 2180.89 385.013 2205.19 364.182C2241.83 332.777 2281.93 298.081 2321.74 271.543C2332.18 264.584 2341.89 256.914 2351.62 249.13C2352.23 248.645 2358.55 242.607 2359.1 243.153C2361.27 245.325 2338.05 265.868 2336.68 267.06C2307.39 292.693 2280.65 321.594 2253.01 349.24C2243.76 358.49 2234.6 367.728 2226.11 377.629C2223.12 381.116 2213.9 391.336 2217.15 388.089C2255.07 350.171 2292.71 312.786 2336.68 282.002C2345.21 276.033 2368.92 250.624 2380.01 250.624C2385.68 250.624 2388.95 259.568 2393.46 262.578" fill="none" opacity="1" stroke="#3c2102" stroke-linecap="round" stroke-linejoin="round" stroke-width="35.7542" vectornator:layerName="Curve 15"/>
<path d="M2350.13 238.671C2342.79 216.663 2391.44 232.861 2400.93 237.177C2470.32 268.715 2545.28 283.531 2619.08 299.932C2643 305.247 2666.67 312.656 2690.8 316.368C2699.46 317.701 2706.74 318.928 2714.71 322.345C2717.18 323.401 2724.58 324.134 2722.18 325.333C2689.8 341.524 2564.75 295.415 2529.43 287.979C2507.06 283.269 2484.63 278.738 2462.19 274.531C2461.06 274.319 2425.75 269.714 2426.33 268.554C2429.36 262.509 2463.87 268.102 2468.17 268.554C2505.65 272.499 2542.97 279.401 2580.23 284.99C2580.34 285.006 2613.11 287.805 2613.11 286.484C2613.11 281.631 2566.87 277.843 2563.8 277.519C2519.55 272.862 2474.66 271.697 2430.82 264.072C2416.92 261.655 2402.61 258.743 2388.98 255.107C2382.89 253.483 2365.81 252.625 2371.05 249.13C2383.33 240.943 2419.2 247.938 2432.31 249.13C2476.68 253.163 2521.02 255.047 2565.29 261.083C2586.82 264.019 2608.45 269.665 2629.54 274.531C2648.33 278.866 2629.34 272.776 2645.98 279.014C2648.49 279.955 2655.99 281.154 2653.45 282.002C2615.53 294.642 2530.4 273.191 2492.08 267.06C2473.11 264.025 2454.13 261.234 2435.3 258.095C2430.29 257.26 2416.76 258.698 2420.36 255.107C2427.24 248.226 2493.95 266.45 2505.52 268.554C2509.57 269.289 2517.48 267.436 2517.48 271.543C2517.48 278.654 2484.85 276.025 2481.62 276.025C2469.63 276.025 2363.39 270.238 2362.08 271.543C2360.29 273.338 2367.01 273.037 2369.55 273.037C2377.46 273.037 2397.55 272.332 2390.47 286.484C2383.59 300.245 2366.45 322.747 2350.13 326.827C2349.16 327.069 2347.59 327.718 2347.14 326.827C2345.4 323.338 2380.02 286.99 2377.03 284.99C2372.86 282.214 2319.44 317.456 2312.78 322.345C2307.07 326.531 2302.1 331.678 2296.34 335.792C2294.88 336.836 2290.06 338.781 2291.86 338.781C2309.32 338.781 2339.39 311.41 2353.12 301.426C2360.16 296.303 2366.86 291.266 2374.04 286.484C2376.38 284.922 2382.53 281.768 2380.01 280.508C2378.72 279.861 2312.05 318.019 2302.32 322.345C2299.59 323.558 2292.63 325.244 2293.35 322.345C2295.23 314.828 2329.25 308.888 2335.19 307.403C2379.53 296.318 2425.73 296.944 2471.16 296.944" fill="none" opacity="1" stroke="#3c2102" stroke-linecap="round" stroke-linejoin="round" stroke-width="35.7542" vectornator:layerName="Curve 16"/>
<path d="M2557.82 328.322L2568.28 322.345" fill="none" opacity="1" stroke="#3c2102" stroke-linecap="round" stroke-linejoin="round" stroke-width="35.7542" vectornator:layerName="Curve 17"/>
<path d="M2354.61 238.671C2336.95 203.347 2406.25 177.755 2415.87 216.258C2420.8 235.958 2352.13 254.084 2360.59 211.775C2365.97 184.872 2434.98 208.149 2442.77 223.729C2447.36 232.912 2384.18 244.564 2381.51 231.2C2377.38 210.539 2462.27 194.224 2468.17 223.729C2471.16 238.68 2440.56 248.56 2438.29 237.177C2432.8 209.762 2510.57 213.836 2523.45 226.717C2546.63 249.89 2469.56 258.606 2474.15 235.682C2478.7 212.921 2551.38 210.957 2556.33 235.682C2559.12 249.661 2513 252.568 2513 237.177C2513 228.282 2595.78 220.687 2592.19 238.671C2590.76 245.811 2552.11 257.394 2550.35 252.118C2547.5 243.582 2616.25 223.147 2620.58 249.13C2625.42 278.186 2569.35 275.165 2581.73 256.601C2596.02 235.158 2658.83 233.608 2663.91 264.072C2665.8 275.403 2638.21 275.427 2631.04 273.037C2629.7 272.591 2627.52 271.356 2628.05 270.048C2631.88 260.476 2678.38 256.131 2684.83 262.578C2696.19 273.938 2664.84 282.648 2666.9 277.519C2672.16 264.353 2702.4 262.587 2711.72 270.048C2729.51 284.281 2702.65 290.384 2704.25 287.979C2709.13 280.658 2748.05 282.397 2750.57 292.461C2752.11 298.605 2725.69 299.447 2720.69 296.944" fill="none" opacity="1" stroke="#3c2102" stroke-linecap="round" stroke-linejoin="round" stroke-width="35.7542" vectornator:layerName="Curve 18"/>
<path d="M2764.02 323.839C2737.36 338.043 2749.33 389.164 2752.06 416.478C2752.92 425.071 2753.56 433.169 2753.56 441.879C2753.56 444.868 2755.67 452.957 2753.56 450.844C2749.43 446.719 2749.59 352.842 2747.58 338.781C2747.39 337.431 2746.02 326.183 2741.61 332.804C2736.5 340.455 2740.75 368.72 2740.11 377.629C2736.9 422.643 2739.89 467.212 2743.1 512.106C2743.84 522.462 2754.26 568.182 2746.09 576.355C2741.05 581.398 2735.76 543.133 2735.63 541.989C2733.21 521.463 2733.15 499.894 2734.13 479.234C2734.16 478.756 2740.33 439.813 2734.13 441.879C2729.49 443.429 2728.47 477.79 2728.16 482.222C2725.02 526.141 2732.55 566.386 2740.11 609.227C2740.42 610.963 2746.5 652.559 2741.61 652.559C2738.63 652.559 2735.68 627.92 2735.63 627.158C2733.82 600.065 2733.95 570.412 2737.12 543.483C2737.23 542.531 2739.86 513.6 2738.62 513.6C2733.05 513.6 2729.87 550.73 2729.65 553.943C2726.89 595.345 2729.61 636.53 2731.15 677.96C2731.72 693.342 2731.15 708.879 2731.15 724.279C2731.15 729.758 2731.15 735.237 2731.15 740.715C2731.15 742.708 2731.15 748.684 2731.15 746.692C2731.15 720.278 2729.65 693.693 2729.65 667.5C2729.65 663.516 2733.64 655.547 2729.65 655.547C2726.03 655.547 2727.02 662.398 2726.66 666.006C2725 682.639 2725.68 701.623 2726.66 718.303C2728.38 747.44 2732.64 775.679 2732.64 804.965C2732.64 817.663 2725.17 842.32 2725.17 842.32C2725.17 842.32 2725.17 821.401 2725.17 810.942C2725.17 795.468 2726.66 782.574 2729.65 767.611C2730.63 762.702 2727.61 749.129 2731.15 752.669C2732.26 753.782 2732.38 755.598 2732.64 757.151C2736.25 778.823 2730.81 802.478 2732.64 824.389C2732.71 825.184 2736.55 848.411 2738.62 845.308C2742.46 839.548 2739.53 736.858 2741.61 721.291C2743.24 709.03 2744.59 696.297 2744.59 683.936C2744.59 677.939 2746.09 660.009 2746.09 666.006C2746.09 702.526 2737.12 739.478 2737.12 776.576C2737.12 777.812 2737.93 801.977 2740.11 801.977C2747.08 801.977 2740.11 788.031 2740.11 781.058C2740.11 768.815 2740.79 755.963 2741.61 743.704C2745.17 690.26 2744.26 632.017 2753.56 579.344C2763.58 522.552 2773.33 466.001 2780.45 409.007C2781.05 404.274 2794.52 358.205 2784.94 358.205C2780.27 358.205 2765.67 439.404 2765.51 441.879C2765.08 448.838 2765.51 455.825 2765.51 462.798C2765.51 465.786 2764.18 474.436 2765.51 471.763C2773.81 455.172 2767.22 370.976 2765.51 352.228C2764.46 340.698 2764.02 329.54 2764.02 317.862C2764.02 311.803 2769.72 294.513 2767.01 299.932C2762.47 309.006 2767.02 328.215 2765.51 338.781C2763.96 349.668 2761.87 360.684 2761.03 371.653C2760.57 377.633 2755.29 393.824 2759.54 389.583C2769.11 380.006 2769.55 342.443 2771.49 329.816C2772.86 320.901 2774.85 311.855 2775.97 302.92C2776.35 299.914 2780.5 293.955 2777.47 293.955C2772.33 293.955 2774.48 315.659 2774.48 317.862C2774.48 339.36 2777.77 360.638 2778.96 382.112C2778.98 382.413 2778.09 415.926 2774.48 410.501C2769.72 403.358 2778.35 324.097 2774.48 323.839C2766.88 323.332 2768.77 321.306 2764.02 323.839Z" fill="none" opacity="1" stroke="#3c2102" stroke-linecap="round" stroke-linejoin="round" stroke-width="35.7542" vectornator:layerName="Curve 19"/>
<path d="M2759.54 287.979C2718.3 279.731 2770.76 256.252 2772.98 259.589C2779.53 269.411 2767.66 327.266 2750.57 305.909C2731.02 281.471 2768.58 229.056 2790.91 255.107C2813.83 281.84 2761.92 323.832 2747.58 305.909C2722.77 274.898 2804.34 241.814 2798.38 283.496C2793 321.179 2716.52 311.798 2725.17 268.554C2726.86 260.079 2744.81 245.712 2752.06 256.601C2764.51 275.27 2718.76 301.426 2705.74 301.426C2692.16 301.426 2683.2 260.403 2693.79 255.107C2701.15 251.427 2722.56 285.425 2698.27 289.473C2663.57 295.256 2681.19 234.995 2699.77 246.142C2703.34 248.282 2703.7 256.271 2702.76 259.589C2691.17 300.147 2644.26 274.641 2680.34 256.601" fill="none" opacity="1" stroke="#3c2102" stroke-linecap="round" stroke-linejoin="round" stroke-width="35.7542" vectornator:layerName="Curve 20"/>
<path d="M2429.32 691.407C2408.79 686.274 2436.02 672.844 2444.26 670.489C2475.77 661.487 2513.22 660.786 2542.88 648.076C2547.13 646.256 2572.88 628.767 2577.25 633.134C2578 633.886 2553.04 647.413 2551.84 648.076C2530.07 660.175 2505.48 671.5 2481.62 679.454C2475.56 681.472 2467.13 684.359 2460.7 685.431C2458.67 685.768 2453.27 685.473 2454.72 686.925C2455.6 687.806 2511.92 672.158 2517.48 670.489C2517.55 670.467 2543.08 664.715 2539.89 661.524C2533.1 654.732 2492.25 677.612 2489.09 683.936" fill="none" opacity="1" stroke="#3c2102" stroke-linecap="round" stroke-linejoin="round" stroke-width="35.7542" vectornator:layerName="Curve 21"/>
<path d="M2408.4 313.38C2393.1 298.075 2417.37 195.723 2417.37 169.938" fill="none" opacity="1" stroke="#ca0000" stroke-linecap="round" stroke-linejoin="round" stroke-width="35.7542" vectornator:layerName="Curve 22"/>
<path d="M2559.32 287.979C2546.42 284.755 2551.15 257.238 2551.84 246.142C2553.98 212.025 2566.79 180.523 2566.79 146.032" fill="none" opacity="1" stroke="#ca0000" stroke-linecap="round" stroke-linejoin="round" stroke-width="35.7542" vectornator:layerName="Curve 23"/>
<path d="M2269.44 361.193C2269.44 328.925 2255.79 252.529 2269.44 225.223" fill="none" opacity="1" stroke="#ca0000" stroke-linecap="round" stroke-linejoin="round" stroke-width="35.7542" vectornator:layerName="Curve 24"/>
<path d="M2269.44 207.293C2229.35 207.293 2266.42 131.13 2282.89 114.654" fill="none" opacity="1" stroke="#e3be40" stroke-linecap="round" stroke-linejoin="round" stroke-width="35.7542" vectornator:layerName="Curve 25"/>
<path d="M2281.4 119.136C2274.7 115.787 2280.87 141.241 2281.4 146.032C2283.63 166.142 2282.27 190.302 2270.94 207.293" fill="none" opacity="1" stroke="#e3be40" stroke-linecap="round" stroke-linejoin="round" stroke-width="35.7542" vectornator:layerName="Curve 26"/>
<path d="M2415.87 152.008C2391.17 139.654 2391.93 72.0865 2417.37 59.3691" fill="none" opacity="1" stroke="#e3be40" stroke-linecap="round" stroke-linejoin="round" stroke-width="35.7542" vectornator:layerName="Curve 27"/>
<path d="M2423.34 65.3458C2413.61 84.8211 2440.12 121.442 2423.34 154.997" fill="none" opacity="1" stroke="#e3be40" stroke-linecap="round" stroke-linejoin="round" stroke-width="35.7542" vectornator:layerName="Curve 28"/>
<path d="M2577.25 134.078C2563.69 120.522 2549.42 54.8865 2583.22 54.8865" fill="none" opacity="1" stroke="#e3be40" stroke-linecap="round" stroke-linejoin="round" stroke-width="35.7542" vectornator:layerName="Curve 29"/>
<path d="M2590.69 63.8516C2585.82 73.6008 2590.92 86.5906 2592.19 96.7236C2594.48 115.037 2588.17 131.657 2580.23 147.526" fill="none" opacity="1" stroke="#e3be40" stroke-linecap="round" stroke-linejoin="round" stroke-width="35.7542" vectornator:layerName="Curve 30"/>
</g>
</svg>
