<?xml version="1.0" encoding="UTF-8" standalone="no"?>
<!DOCTYPE svg PUBLIC "-//W3C//DTD SVG 1.1//EN" "http://www.w3.org/Graphics/SVG/1.1/DTD/svg11.dtd">
<!-- Created with Vectornator (http://vectornator.io/) -->
<svg height="100%" stroke-miterlimit="10" style="fill-rule:nonzero;clip-rule:evenodd;stroke-linecap:round;stroke-linejoin:round;" version="1.1" viewBox="0 0 1492.88 480.677" width="100%" xml:space="preserve" xmlns="http://www.w3.org/2000/svg" xmlns:vectornator="http://vectornator.io" xmlns:xlink="http://www.w3.org/1999/xlink">
<defs/>
<g id="Layer-1" vectornator:layerName="Layer 1">
<path d="M1229.21 137.161C1229.21 91.6861 1267.39 54.8216 1314.49 54.8216C1361.59 54.8216 1399.77 91.6861 1399.77 137.161C1399.77 182.636 1361.59 219.5 1314.49 219.5C1267.39 219.5 1229.21 182.636 1229.21 137.161Z" fill="#ffe433" fill-rule="nonzero" opacity="1" stroke="#000000" stroke-linecap="butt" stroke-linejoin="round" stroke-width="10" vectornator:layerName="Oval 1"/>
<path d="M1282.17 117.563C1276.57 109.986 1292.05 108.065 1292.05 124.248C1292.05 125.493 1291.59 127.59 1290.25 127.59C1285.91 127.59 1288.63 114.378 1292.05 117.563C1305.59 130.168 1269.85 118.705 1283.07 112.55C1289.91 109.368 1294.87 121.975 1292.05 125.919C1288.58 130.758 1284.95 114.939 1286.66 112.55C1290.87 106.679 1298.3 118.554 1297.43 122.577C1295.37 132.165 1277.69 122.553 1277.69 115.892C1277.69 111.295 1285.5 111.176 1288.46 112.55C1300.87 118.329 1297.15 137.828 1282.17 117.563Z" fill="none" opacity="1" stroke="#000000" stroke-linecap="round" stroke-linejoin="round" stroke-width="10" vectornator:layerName="Curve 31"/>
<path d="M1340.52 120.906C1352.59 132.797 1332.4 97.4411 1345.91 122.577C1348.87 128.093 1339.22 130.444 1335.13 127.59C1328.51 122.967 1335.01 110.879 1342.32 110.879C1347.15 110.879 1348.07 125.575 1345.91 127.59C1340.53 132.592 1328.52 121.48 1336.93 117.563C1342.86 114.802 1346.32 121.816 1344.11 125.919C1343.07 127.853 1332.2 112.709 1340.52 120.906Z" fill="none" opacity="1" stroke="#000000" stroke-linecap="round" stroke-linejoin="round" stroke-width="10" vectornator:layerName="Curve 32"/>
<path d="M1288.46 164.354C1277.57 184.628 1326.07 212.984 1349.5 169.367" fill="none" opacity="1" stroke="#000000" stroke-linecap="round" stroke-linejoin="round" stroke-width="10" vectornator:layerName="Curve 33"/>
<path d="M38.8542 128.562C38.8542 78.3381 79.5591 37.6236 129.771 37.6236C179.983 37.6236 220.688 78.3381 220.688 128.562C220.688 178.786 179.983 219.5 129.771 219.5C79.5591 219.5 38.8542 178.786 38.8542 128.562Z" fill="#2c3ed4" fill-rule="nonzero" opacity="1" stroke="#000000" stroke-linecap="round" stroke-linejoin="round" stroke-width="10" vectornator:layerName="Oval 2"/>
<path d="M110.69 104.196C107.998 111.371 97.469 105.196 101.71 96.7134C104.016 92.1022 110.666 97.6795 112.186 99.7066C113.713 101.742 110.69 107.189 110.69 107.189C110.69 107.189 116.492 107.811 115.18 108.686C108.357 113.234 103.988 101.138 106.2 96.7134C110.448 88.2168 123.275 105.08 119.669 108.686C116.563 111.793 97.0173 109.195 100.214 101.203C105.088 89.0178 123.547 103.312 115.18 111.679C109.7 117.159 99.6547 109.804 103.207 102.7C105.54 98.0337 120.591 100.856 116.676 108.686C110.849 120.339 113.81 95.8802 110.69 104.196Z" fill="none" opacity="1" stroke="#000000" stroke-linecap="round" stroke-linejoin="round" stroke-width="10" vectornator:layerName="Curve 34"/>
<path d="M163.818 105.693C144.713 91.9449 175.7 98.3918 170.553 108.686C165.558 118.676 153.734 98.21 163.07 98.21C167.521 98.21 172.68 111.482 170.553 114.672C167.14 119.791 152.843 106.857 157.084 101.203C160.107 97.1714 170.472 100.254 172.049 104.196C176.149 114.445 158.703 119.469 155.587 111.679C152.919 105.01 163.198 98.381 167.56 104.196C171.489 109.436 160.983 117.98 157.084 110.183C152.972 101.96 166.073 107.316 163.818 105.693Z" fill="none" opacity="1" stroke="#000000" stroke-linecap="round" stroke-linejoin="round" stroke-width="10" vectornator:layerName="Curve 35"/>
<path d="M99.4655 185.76C100.213 187.154 97.7093 187.989 95.7241 185.011C89.8468 176.195 123.126 157.98 130.145 156.576C147.04 153.197 153.698 172.255 160.077 185.011C161.074 187.007 163.07 190.998 163.07 190.998C163.07 190.998 160.302 184.888 158.58 182.018C151.54 170.285 145.011 162.912 131.642 159.57C119.517 156.538 95.3016 177.995 99.4655 185.76Z" fill="none" opacity="1" stroke="#000000" stroke-linecap="round" stroke-linejoin="round" stroke-width="10" vectornator:layerName="Curve 36"/>
<path d="M322.497 127.693C279.304 119.055 402.038 128.889 402.695 128.927C459.562 132.176 517.402 127.867 574.197 125.225C694.459 119.632 815.513 121.367 935.709 127.693C990.246 130.563 1049.62 136.002 1103.51 125.225" fill="none" opacity="1" stroke="#000000" stroke-linecap="round" stroke-linejoin="round" stroke-width="10" vectornator:layerName="Curve 37"/>
<path d="M1082.53 110.419C1036.09 94.9369 1080.9 122.873 1101.04 123.992C1106.42 124.29 1166.43 119.055 1166.43 119.056C1169.19 121.815 1159.03 121.524 1155.33 122.758C1148.08 125.174 1141.27 128.203 1134.35 131.394C1113.19 141.161 1092.32 151.797 1071.43 162.24" fill="none" opacity="1" stroke="#000000" stroke-linecap="round" stroke-linejoin="round" stroke-width="10" vectornator:layerName="Curve 38"/>
<path d="M331.133 77.1061C334.128 77.1061 342.764 74.6384 339.77 74.6384C327.528 74.6384 277.094 125.236 279.313 136.33C281.848 149.007 370.616 128.875 370.616 153.603" fill="none" opacity="1" stroke="#000000" stroke-linecap="round" stroke-linejoin="round" stroke-width="10" vectornator:layerName="Curve 39"/>
<path d="M670.436 62.3002C668.791 59.8325 667.968 53.2521 665.501 54.8972C662.735 56.7412 662.445 78.8124 661.799 82.0414C659.132 95.3769 653.426 191.367 666.734 198.021" fill="none" opacity="1" stroke="#000000" stroke-linecap="round" stroke-linejoin="round" stroke-width="10" vectornator:layerName="Curve 40"/>
<path d="M649.461 281.304C652.736 260.045 619.162 280.005 612.446 290.558C579.537 342.272 607.35 427.167 679.073 416.408C716.455 410.801 771.877 366.732 759.271 323.871C750.158 292.886 718.661 283.155 690.177 283.155C678.81 283.155 670.244 284.338 659.331 286.857C654.851 287.891 644.725 293.805 645.759 289.324C647.25 282.863 648.771 285.78 649.461 281.304Z" fill="none" opacity="1" stroke="#000000" stroke-linecap="round" stroke-linejoin="round" stroke-width="10" vectornator:layerName="Curve 41"/>
<path d="M653.162 328.807L653.162 328.807" fill="none" opacity="1" stroke="#000000" stroke-linecap="round" stroke-linejoin="round" stroke-width="10" vectornator:layerName="Curve 42"/>
<path d="M701.282 332.508L701.282 334.976" fill="none" opacity="1" stroke="#000000" stroke-linecap="round" stroke-linejoin="round" stroke-width="10" vectornator:layerName="Curve 43"/>
<path d="M651.312 335.593C646.8 318.682 669.484 338.677 655.63 338.677C643.223 338.677 667.818 331.349 653.162 338.677C647.614 341.451 652.181 338.851 651.312 335.593Z" fill="none" opacity="1" stroke="#000000" stroke-linecap="round" stroke-linejoin="round" stroke-width="10" vectornator:layerName="Curve 44"/>
<path d="M703.749 334.976C689.494 328.627 715.077 341.145 704.983 341.145C686.9 341.145 715.469 340.196 703.749 334.976Z" fill="none" opacity="1" stroke="#000000" stroke-linecap="round" stroke-linejoin="round" stroke-width="10" vectornator:layerName="Curve 45"/>
<path d="M650.695 379.394C663.829 372.827 681.473 386.819 696.346 381.861" fill="none" opacity="1" stroke="#000000" stroke-linecap="round" stroke-linejoin="round" stroke-width="10" vectornator:layerName="Curve 46"/>
</g>
</svg>
