<?xml version="1.0" encoding="UTF-8" standalone="no"?>
<!DOCTYPE svg PUBLIC "-//W3C//DTD SVG 1.1//EN" "http://www.w3.org/Graphics/SVG/1.1/DTD/svg11.dtd">
<!-- Created with Vectornator (http://vectornator.io/) -->
<svg height="100%" stroke-miterlimit="10" style="fill-rule:nonzero;clip-rule:evenodd;stroke-linecap:round;stroke-linejoin:round;" version="1.1" viewBox="0 0 2927.8 841.833" width="100%" xml:space="preserve" xmlns="http://www.w3.org/2000/svg" xmlns:vectornator="http://vectornator.io" xmlns:xlink="http://www.w3.org/1999/xlink">
<defs/>
<g id="Layer-1" vectornator:layerName="Layer 1">
<path d="M2553.13 347.995C2567.22 343.981 2537.26 337.088 2526.19 342.009C2499.44 353.898 2469.1 419.404 2502.24 439.286C2538.7 461.162 2623.19 440.912 2630.95 394.389C2635.38 367.771 2596.11 349.852 2577.07 343.506C2574.2 342.549 2543.31 341.947 2545.64 343.506C2550.5 346.744 2549.73 348.962 2553.13 347.995Z" fill="none" opacity="1" stroke="#000000" stroke-linecap="round" stroke-linejoin="round" stroke-width="10" vectornator:layerName="Curve 40"/>
<path d="M2553.13 464.728C2551.77 462.014 2553.66 452.87 2554.62 455.749C2561.59 476.639 2553.84 523.951 2547.14 544.047" fill="none" opacity="1" stroke="#000000" stroke-linecap="round" stroke-linejoin="round" stroke-width="10" vectornator:layerName="Curve 41"/>
<path d="M2563.6 473.708C2560.73 472.272 2506.21 530.12 2502.24 538.06" fill="none" opacity="1" stroke="#000000" stroke-linecap="round" stroke-linejoin="round" stroke-width="10" vectornator:layerName="Curve 42"/>
<path d="M2569.59 470.714C2555.68 498.532 2589.04 530.723 2589.04 559.012" fill="none" opacity="1" stroke="#000000" stroke-linecap="round" stroke-linejoin="round" stroke-width="10" vectornator:layerName="Curve 43"/>
<path d="M2539.66 548.536C2532.75 545.085 2526.42 585.365 2523.19 593.434C2514.43 615.337 2500.87 636.581 2490.27 657.786" fill="none" opacity="1" stroke="#000000" stroke-linecap="round" stroke-linejoin="round" stroke-width="10" vectornator:layerName="Curve 44"/>
<path d="M2547.14 554.523C2547.14 588.057 2569.71 619.237 2580.06 650.303" fill="none" opacity="1" stroke="#000000" stroke-linecap="round" stroke-linejoin="round" stroke-width="10" vectornator:layerName="Curve 45"/>
<path d="M437.795 282.894C451.886 278.88 421.929 271.987 410.856 276.908C384.106 288.797 353.773 354.303 386.911 374.185C423.37 396.061 507.863 375.812 515.616 329.288C520.053 302.67 480.78 284.751 461.74 278.405C458.871 277.448 427.974 276.847 430.312 278.405C435.17 281.644 434.402 283.861 437.795 282.894Z" fill="none" opacity="1" stroke="#000000" stroke-linecap="round" stroke-linejoin="round" stroke-width="10" vectornator:layerName="Curve 46"/>
<path d="M437.795 399.627C436.438 396.913 438.332 387.769 439.291 390.648C446.255 411.538 438.507 458.85 431.808 478.946" fill="none" opacity="1" stroke="#000000" stroke-linecap="round" stroke-linejoin="round" stroke-width="10" vectornator:layerName="Curve 47"/>
<path d="M448.271 408.607C445.4 407.171 390.881 465.019 386.911 472.959" fill="none" opacity="1" stroke="#000000" stroke-linecap="round" stroke-linejoin="round" stroke-width="10" vectornator:layerName="Curve 48"/>
<path d="M454.257 405.613C440.348 433.431 473.712 465.622 473.712 493.911" fill="none" opacity="1" stroke="#000000" stroke-linecap="round" stroke-linejoin="round" stroke-width="10" vectornator:layerName="Curve 49"/>
<path d="M424.325 483.435C417.423 479.984 411.091 520.264 407.863 528.333C399.102 550.236 385.541 571.48 374.938 592.685" fill="none" opacity="1" stroke="#000000" stroke-linecap="round" stroke-linejoin="round" stroke-width="10" vectornator:layerName="Curve 50"/>
<path d="M431.808 489.422C431.808 522.956 454.377 554.136 464.733 585.202" fill="none" opacity="1" stroke="#000000" stroke-linecap="round" stroke-linejoin="round" stroke-width="10" vectornator:layerName="Curve 51"/>
<path d="M1380.07 332.177C1394.16 328.162 1364.2 321.269 1353.13 326.19C1326.38 338.079 1296.05 403.585 1329.18 423.468C1365.64 445.343 1450.14 425.094 1457.89 378.571C1462.33 351.952 1423.05 334.034 1404.01 327.687C1401.14 326.731 1370.25 326.129 1372.58 327.687C1377.44 330.926 1376.68 333.143 1380.07 332.177Z" fill="none" opacity="1" stroke="#000000" stroke-linecap="round" stroke-linejoin="round" stroke-width="10" vectornator:layerName="Curve 52"/>
<path d="M1380.07 448.91C1378.71 446.195 1380.6 437.051 1381.56 439.93C1388.53 460.82 1380.78 508.132 1374.08 528.228" fill="none" opacity="1" stroke="#000000" stroke-linecap="round" stroke-linejoin="round" stroke-width="10" vectornator:layerName="Curve 53"/>
<path d="M1390.54 457.889C1387.67 456.454 1333.15 514.301 1329.18 522.242" fill="none" opacity="1" stroke="#000000" stroke-linecap="round" stroke-linejoin="round" stroke-width="10" vectornator:layerName="Curve 54"/>
<path d="M1396.53 454.896C1382.62 482.714 1415.99 514.904 1415.99 543.194" fill="none" opacity="1" stroke="#000000" stroke-linecap="round" stroke-linejoin="round" stroke-width="10" vectornator:layerName="Curve 55"/>
<path d="M1366.6 532.718C1359.7 529.266 1353.36 569.546 1350.14 577.615C1341.37 599.518 1327.81 620.762 1317.21 641.968" fill="none" opacity="1" stroke="#000000" stroke-linecap="round" stroke-linejoin="round" stroke-width="10" vectornator:layerName="Curve 56"/>
<path d="M1374.08 538.704C1374.08 572.238 1396.65 603.418 1407.01 634.485" fill="none" opacity="1" stroke="#000000" stroke-linecap="round" stroke-linejoin="round" stroke-width="10" vectornator:layerName="Curve 57"/>
<path d="M75.6741 591.004C45.8884 581.076 38.4772 545.672 51.7289 519.169" fill="none" opacity="1" stroke="#000000" stroke-linecap="round" stroke-linejoin="round" stroke-width="10" vectornator:layerName="Curve 58"/>
<path d="M71.1844 490.734C64.4473 487.365 90.8791 453.978 110.095 466.789" fill="none" opacity="1" stroke="#000000" stroke-linecap="round" stroke-linejoin="round" stroke-width="10" vectornator:layerName="Curve 59"/>
<path d="M149.006 465.292C169.296 465.292 172.028 480.545 186.421 487.741" fill="none" opacity="1" stroke="#000000" stroke-linecap="round" stroke-linejoin="round" stroke-width="10" vectornator:layerName="Curve 60"/>
<path d="M199.89 540.869C199.352 543.56 198.871 535.186 199.89 532.638C202.121 527.061 201.885 556.583 201.386 550.597C200.764 543.123 200.922 535.71 199.89 540.869Z" fill="none" opacity="1" stroke="#000000" stroke-linecap="round" stroke-linejoin="round" stroke-width="10" vectornator:layerName="Curve 61"/>
<path d="M178.938 596.991C168.767 603.771 156.719 605.107 146.013 610.46" fill="none" opacity="1" stroke="#000000" stroke-linecap="round" stroke-linejoin="round" stroke-width="10" vectornator:layerName="Curve 62"/>
<path d="M107.85 610.46C106.259 610.596 102.594 606.962 104.109 607.467C108.342 608.878 112.191 610.09 107.85 610.46Z" fill="none" opacity="1" stroke="#000000" stroke-linecap="round" stroke-linejoin="round" stroke-width="10" vectornator:layerName="Curve 63"/>
<path d="M50.9806 681.547C45.2383 681.547 41.573 674.956 36.7632 671.819C31.4682 668.366 51.3361 679.366 56.2186 682.295C58.1317 683.443 64.2306 686.224 62.2049 685.289C54.7074 681.828 55.9316 681.547 50.9806 681.547Z" fill="none" opacity="1" stroke="#000000" stroke-linecap="round" stroke-linejoin="round" stroke-width="10" vectornator:layerName="Curve 64"/>
<path d="M57.7152 662.84C54.3742 672.863 51.7289 705.739 51.7289 701.751" fill="none" opacity="1" stroke="#000000" stroke-linecap="round" stroke-linejoin="round" stroke-width="10" vectornator:layerName="Curve 65"/>
<path d="M41.2529 694.268C26.147 694.268 57.7914 672.53 62.2049 670.323" fill="none" opacity="1" stroke="#000000" stroke-linecap="round" stroke-linejoin="round" stroke-width="10" vectornator:layerName="Curve 66"/>
<path d="M98.871 690.527C84.1424 684.825 96.0865 701.211 102.612 707.737C104.376 709.501 109.596 713.724 107.102 713.724C97.8788 713.724 83.4235 678.354 92.1364 671.819C103.501 663.296 142.24 707.316 98.871 690.527Z" fill="none" opacity="1" stroke="#000000" stroke-linecap="round" stroke-linejoin="round" stroke-width="10" vectornator:layerName="Curve 67"/>
<path d="M126.558 683.792C127.381 693.975 129.665 711.767 143.02 701.751C168.461 682.67 124.226 654.964 126.558 683.792Z" fill="none" opacity="1" stroke="#000000" stroke-linecap="round" stroke-linejoin="round" stroke-width="10" vectornator:layerName="Curve 68"/>
<path d="M150.503 673.316C151.096 680.9 165.258 701.308 168.462 685.289C171.628 669.458 149.089 655.246 150.503 673.316Z" fill="none" opacity="1" stroke="#000000" stroke-linecap="round" stroke-linejoin="round" stroke-width="10" vectornator:layerName="Curve 69"/>
<path d="M190.91 679.302C199.341 683.517 172.745 663.096 169.958 646.378C166.398 625.016 182.059 628.005 193.903 635.902" fill="none" opacity="1" stroke="#000000" stroke-linecap="round" stroke-linejoin="round" stroke-width="10" vectornator:layerName="Curve 70"/>
<path d="M194.652 665.833C197.39 663.095 187.3 668.826 183.427 668.826C181.128 668.826 202.264 660.661 201.386 661.343C195.916 665.598 190.549 669.935 194.652 665.833Z" fill="none" opacity="1" stroke="#000000" stroke-linecap="round" stroke-linejoin="round" stroke-width="10" vectornator:layerName="Curve 71"/>
<path d="M964.451 559.012C964.451 508.789 1005.16 468.074 1055.37 468.074C1105.58 468.074 1146.28 508.789 1146.28 559.012C1146.28 609.236 1105.58 649.951 1055.37 649.951C1005.16 649.951 964.451 609.236 964.451 559.012Z" fill="#2c3ed4" fill-rule="nonzero" opacity="1" stroke="#000000" stroke-linecap="round" stroke-linejoin="round" stroke-width="10" vectornator:layerName="Oval 3"/>
<path d="M1036.29 534.647C1033.59 541.822 1023.07 535.647 1027.31 527.164C1029.61 522.553 1036.26 528.13 1037.78 530.157C1039.31 532.192 1036.29 537.64 1036.29 537.64C1036.29 537.64 1042.09 538.261 1040.78 539.137C1033.95 543.685 1029.58 531.588 1031.8 527.164C1036.05 518.667 1048.87 535.531 1045.27 539.137C1042.16 542.243 1022.61 539.645 1025.81 531.654C1030.68 519.468 1049.14 533.763 1040.78 542.13C1035.3 547.609 1025.25 540.255 1028.8 533.15C1031.14 528.484 1046.19 531.307 1042.27 539.137C1036.45 550.79 1039.41 526.331 1036.29 534.647Z" fill="none" opacity="1" stroke="#000000" stroke-linecap="round" stroke-linejoin="round" stroke-width="10" vectornator:layerName="Curve 72"/>
<path d="M1089.42 536.143C1070.31 522.395 1101.3 528.842 1096.15 539.137C1091.15 549.126 1079.33 528.66 1088.67 528.66C1093.12 528.66 1098.28 541.932 1096.15 545.123C1092.74 550.242 1078.44 537.308 1082.68 531.654C1085.7 527.622 1096.07 530.705 1097.65 534.647C1101.75 544.895 1084.3 549.919 1081.18 542.13C1078.52 535.461 1088.79 528.831 1093.16 534.647C1097.09 539.886 1086.58 548.431 1082.68 540.633C1078.57 532.41 1091.67 537.766 1089.42 536.143Z" fill="none" opacity="1" stroke="#000000" stroke-linecap="round" stroke-linejoin="round" stroke-width="10" vectornator:layerName="Curve 73"/>
<path d="M1025.06 616.21C1025.81 617.604 1023.31 618.44 1021.32 615.462C1015.44 606.646 1048.72 588.431 1055.74 587.027C1072.64 583.648 1079.3 602.705 1085.67 615.462C1086.67 617.457 1088.67 621.448 1088.67 621.448C1088.67 621.448 1085.9 615.338 1084.18 612.469C1077.14 600.736 1070.61 593.362 1057.24 590.02C1045.11 586.989 1020.9 608.446 1025.06 616.21Z" fill="none" opacity="1" stroke="#000000" stroke-linecap="round" stroke-linejoin="round" stroke-width="10" vectornator:layerName="Curve 74"/>
<path d="M2095.62 559.012C2095.62 508.789 2136.32 468.074 2186.53 468.074C2236.75 468.074 2277.45 508.789 2277.45 559.012C2277.45 609.236 2236.75 649.951 2186.53 649.951C2136.32 649.951 2095.62 609.236 2095.62 559.012Z" fill="#2c3ed4" fill-rule="nonzero" opacity="1" stroke="#000000" stroke-linecap="round" stroke-linejoin="round" stroke-width="10" vectornator:layerName="Oval 4"/>
<path d="M2167.45 534.647C2164.76 541.822 2154.23 535.647 2158.47 527.164C2160.78 522.553 2167.43 528.13 2168.95 530.157C2170.48 532.192 2167.45 537.64 2167.45 537.64C2167.45 537.64 2173.25 538.261 2171.94 539.137C2165.12 543.685 2160.75 531.588 2162.96 527.164C2167.21 518.667 2180.04 535.531 2176.43 539.137C2173.33 542.243 2153.78 539.645 2156.98 531.654C2161.85 519.468 2180.31 533.763 2171.94 542.13C2166.46 547.609 2156.42 540.255 2159.97 533.15C2162.3 528.484 2177.35 531.307 2173.44 539.137C2167.61 550.79 2170.57 526.331 2167.45 534.647Z" fill="none" opacity="1" stroke="#000000" stroke-linecap="round" stroke-linejoin="round" stroke-width="10" vectornator:layerName="Curve 75"/>
<path d="M2220.58 536.143C2201.48 522.395 2232.46 528.842 2227.32 539.137C2222.32 549.126 2210.5 528.66 2219.83 528.66C2224.28 528.66 2229.44 541.932 2227.32 545.123C2223.9 550.242 2209.61 537.308 2213.85 531.654C2216.87 527.622 2227.23 530.705 2228.81 534.647C2232.91 544.895 2215.47 549.919 2212.35 542.13C2209.68 535.461 2219.96 528.831 2224.32 534.647C2228.25 539.886 2217.74 548.431 2213.85 540.633C2209.73 532.41 2222.84 537.766 2220.58 536.143Z" fill="none" opacity="1" stroke="#000000" stroke-linecap="round" stroke-linejoin="round" stroke-width="10" vectornator:layerName="Curve 76"/>
<path d="M2156.23 616.21C2156.98 617.604 2154.47 618.44 2152.49 615.462C2146.61 606.646 2179.89 588.431 2186.91 587.027C2203.8 583.648 2210.46 602.705 2216.84 615.462C2217.84 617.457 2219.83 621.448 2219.83 621.448C2219.83 621.448 2217.06 615.338 2215.34 612.469C2208.3 600.736 2201.77 593.362 2188.4 590.02C2176.28 586.989 2152.06 608.446 2156.23 616.21Z" fill="none" opacity="1" stroke="#000000" stroke-linecap="round" stroke-linejoin="round" stroke-width="10" vectornator:layerName="Curve 77"/>
<path d="M1049.94 400.939C1049.94 403.228 1051.96 413.428 1045.45 406.926C1023.93 385.403 1046.58 323.774 1079.88 332.097" fill="none" opacity="1" stroke="#000000" stroke-linecap="round" stroke-linejoin="round" stroke-width="10" vectornator:layerName="Curve 78"/>
<path d="M1027.5 394.953C1016.48 394.953 1032.71 400.024 1039.47 405.429C1041.26 406.866 1052.22 420.376 1054.43 418.898C1061.75 414.019 1068.65 389.715 1076.88 381.484" fill="none" opacity="1" stroke="#000000" stroke-linecap="round" stroke-linejoin="round" stroke-width="10" vectornator:layerName="Curve 79"/>
<path d="M1043.96 248.289C1043.96 214.55 1003.79 275.309 1017.02 279.717C1024.41 282.181 1038.49 261.27 1048.45 266.248C1076.19 280.12 1009.98 302.517 1033.48 294.683" fill="none" opacity="1" stroke="#000000" stroke-linecap="round" stroke-linejoin="round" stroke-width="10" vectornator:layerName="Curve 80"/>
<path d="M1085.86 275.227C1048.3 260.78 1060.91 280.797 1072.39 282.71C1082.14 284.335 1086.78 267.744 1084.37 267.744C1079.06 267.744 1099.5 282.256 1094.84 279.717C1087.99 275.978 1091.07 277.229 1085.86 275.227Z" fill="none" opacity="1" stroke="#000000" stroke-linecap="round" stroke-linejoin="round" stroke-width="10" vectornator:layerName="Curve 81"/>
<path d="M1108.31 261.758C1089.39 252.296 1097.92 290.103 1115.79 272.234C1127.04 260.985 1096.53 213.868 1093.34 213.868C1090.09 213.868 1102.16 233.072 1102.32 233.323C1106.35 239.356 1132.18 282.854 1136.75 273.731" fill="none" opacity="1" stroke="#000000" stroke-linecap="round" stroke-linejoin="round" stroke-width="10" vectornator:layerName="Curve 82"/>
<path d="M1138.24 251.282C1128.52 246.422 1148.05 273.578 1151.71 266.248C1153.49 262.683 1146.31 224.344 1148.72 224.344C1155.12 224.344 1159.46 272.848 1175.66 264.751C1179.47 262.845 1175.79 254.007 1177.15 251.282C1179.72 246.139 1211.71 234.249 1184.64 228.833C1183.17 228.54 1181.39 228.003 1180.15 228.833C1166.61 237.86 1195.18 268.46 1211.57 260.261" fill="none" opacity="1" stroke="#000000" stroke-linecap="round" stroke-linejoin="round" stroke-width="10" vectornator:layerName="Curve 83"/>
<path d="M1229.53 235.568C1225.22 218.033 1208.04 218.781 1214.57 231.827C1219.33 241.349 1245.14 218.546 1248.99 237.813C1251.88 252.278 1217.84 267.092 1216.06 261.758C1215.14 258.993 1224.97 253.077 1225.04 252.779C1227.57 243.076 1230.42 239.169 1229.53 235.568Z" fill="none" opacity="1" stroke="#000000" stroke-linecap="round" stroke-linejoin="round" stroke-width="10" vectornator:layerName="Curve 84"/>
<path d="M1266.95 209.378C1252.41 194.843 1248.09 217.26 1256.47 222.847C1265.77 229.046 1301.92 213.569 1290.89 239.309C1288.09 245.839 1288.22 245.844 1281.91 249.785C1275.86 253.571 1268.86 257.061 1262.46 260.261" fill="none" opacity="1" stroke="#000000" stroke-linecap="round" stroke-linejoin="round" stroke-width="10" vectornator:layerName="Curve 85"/>
<path d="M2658.76 537.128C2655.34 534.846 2646.79 534.135 2646.79 534.135C2646.79 534.135 2668.8 532.7 2679.71 531.141C2703.59 527.73 2727.7 522.442 2751.55 517.672C2759.23 516.137 2788.33 506.332 2774 520.665" fill="none" opacity="1" stroke="#000000" stroke-linecap="round" stroke-linejoin="round" stroke-width="10" vectornator:layerName="Curve 86"/>
<path d="M2769.51 501.21C2777.45 485.321 2811.52 499.748 2824.88 504.203C2830.56 506.096 2833.92 507.706 2839.85 508.693C2841.88 509.031 2847.67 509.27 2845.83 510.189C2827.02 519.596 2805.08 520.697 2785.97 532.638C2779.81 536.491 2745.45 559.116 2771 550.597" fill="none" opacity="1" stroke="#000000" stroke-linecap="round" stroke-linejoin="round" stroke-width="10" vectornator:layerName="Curve 87"/>
<path d="M2527.06 257.268C2517.3 262.148 2548.64 305.576 2556.99 311.145C2558.57 312.193 2562.76 290.415 2565.97 287.2C2572.11 281.062 2604.88 253.282 2604.88 264.751" fill="none" opacity="1" stroke="#000000" stroke-linecap="round" stroke-linejoin="round" stroke-width="10" vectornator:layerName="Curve 88"/>
<path d="M2531.55 249.785C2528.18 256.525 2516.62 245.718 2509.1 246.792C2462.77 253.412 2404.38 229.006 2393.87 176.453C2386.54 139.802 2427.12 109.574 2453.73 91.1486C2483.27 70.6956 2515.26 70.136 2548.02 58.2239C2612.25 34.867 2661.82 23.8266 2727.6 47.7479C2783.51 68.0766 2857.4 189.197 2788.96 234.82C2733.18 272.008 2682.63 261.758 2621.35 261.758" fill="none" opacity="1" stroke="#000000" stroke-linecap="round" stroke-linejoin="round" stroke-width="10" vectornator:layerName="Curve 89"/>
<path d="M2587.67 75.4345C2587.87 77.1299 2577.34 65.4125 2568.97 71.6931C2564.29 75.1986 2562.15 89.5587 2565.97 94.1417C2593.83 127.563 2585.45 55.97 2587.67 75.4345Z" fill="none" opacity="1" stroke="#000000" stroke-linecap="round" stroke-linejoin="round" stroke-width="10" vectornator:layerName="Curve 90"/>
<path d="M2586.93 89.652C2590.65 97.1058 2611.13 122.32 2603.39 130.059C2597.01 136.434 2559.24 131.932 2574.95 124.073" fill="none" opacity="1" stroke="#000000" stroke-linecap="round" stroke-linejoin="round" stroke-width="10" vectornator:layerName="Curve 91"/>
<path d="M2622.1 82.9174C2632.93 107.923 2645.29 110.793 2645.29 85.1623C2645.29 68.9588 2603.48 39.9708 2622.1 82.9174Z" fill="none" opacity="1" stroke="#000000" stroke-linecap="round" stroke-linejoin="round" stroke-width="10" vectornator:layerName="Curve 92"/>
<path d="M2503.12 183.936C2483.84 177.511 2473.55 165.709 2470.19 195.909C2469.57 201.531 2469.26 203.955 2473.19 207.881C2503.86 238.551 2501.68 176.331 2500.12 179.446C2492.97 193.757 2514.9 221.913 2530.06 216.861" fill="none" opacity="1" stroke="#000000" stroke-linecap="round" stroke-linejoin="round" stroke-width="10" vectornator:layerName="Curve 93"/>
<path d="M2530.06 188.426C2523.91 185.354 2535.39 217.186 2548.02 210.875C2552.5 208.632 2544.5 195.909 2549.51 195.909C2552.52 195.909 2567.47 216.839 2567.47 197.405C2567.47 191.271 2565.97 185.616 2565.97 179.446" fill="none" opacity="1" stroke="#000000" stroke-linecap="round" stroke-linejoin="round" stroke-width="10" vectornator:layerName="Curve 94"/>
<path d="M2586.93 180.943C2574.63 180.943 2576.81 205.172 2589.92 201.895C2597.66 199.959 2594.35 171.309 2589.92 177.95C2580.77 191.671 2603.45 204.5 2613.86 201.895" fill="none" opacity="1" stroke="#000000" stroke-linecap="round" stroke-linejoin="round" stroke-width="10" vectornator:layerName="Curve 95"/>
<path d="M2609.37 179.446C2588.3 179.446 2628.92 197.275 2634.82 188.426C2636.04 186.595 2630.71 171.964 2628.83 171.964C2622.97 171.964 2637.7 192.717 2637.81 192.916C2642.21 200.617 2653.24 222.045 2651.28 231.827C2648.29 246.77 2595.58 218.357 2619.85 218.357" fill="none" opacity="1" stroke="#000000" stroke-linecap="round" stroke-linejoin="round" stroke-width="10" vectornator:layerName="Curve 96"/>
<path d="M2692.43 189.922C2690.02 178.526 2702.91 212.38 2705.16 218.357C2706.26 221.312 2709.15 230.33 2708.15 227.337C2704.65 216.85 2684.48 183.656 2694.68 173.46C2701.48 166.664 2717.54 180.792 2715.63 188.426C2713.25 197.959 2690.19 210.111 2688.69 200.398C2687.63 193.496 2693.5 194.929 2692.43 189.922Z" fill="none" opacity="1" stroke="#000000" stroke-linecap="round" stroke-linejoin="round" stroke-width="10" vectornator:layerName="Curve 97"/>
<path d="M2717.13 154.005C2703.13 154.005 2732.47 204.153 2736.58 212.371" fill="none" opacity="1" stroke="#000000" stroke-linecap="round" stroke-linejoin="round" stroke-width="10" vectornator:layerName="Curve 98"/>
<path d="M2757.54 170.467C2745.48 164.438 2739.93 181.866 2747.06 185.433C2752.9 188.353 2763.06 183.82 2769.51 185.433C2777.34 187.391 2776.35 194.2 2769.51 195.909C2763.36 197.445 2756.41 200.398 2750.05 200.398" fill="none" opacity="1" stroke="#000000" stroke-linecap="round" stroke-linejoin="round" stroke-width="10" vectornator:layerName="Curve 99"/>
</g>
</svg>
