<?xml version="1.0" encoding="UTF-8" standalone="no"?>
<!DOCTYPE svg PUBLIC "-//W3C//DTD SVG 1.1//EN" "http://www.w3.org/Graphics/SVG/1.1/DTD/svg11.dtd">
<!-- Created with Vectornator (http://vectornator.io/) -->
<svg height="100%" stroke-miterlimit="10" style="fill-rule:nonzero;clip-rule:evenodd;stroke-linecap:round;stroke-linejoin:round;" version="1.1" viewBox="0 0 2629.83 925.011" width="100%" xml:space="preserve" xmlns="http://www.w3.org/2000/svg" xmlns:vectornator="http://vectornator.io" xmlns:xlink="http://www.w3.org/1999/xlink">
<defs/>
<g id="Layer-1" vectornator:layerName="Layer 1">
<path d="M365.926 368.13C266.397 368.13 281.295 547.579 400.447 505.398C466.218 482.115 472.701 401.506 410.311 368.13C388.621 356.527 353.841 351.565 341.268 376.787" fill="none" opacity="1" stroke="#000000" stroke-linecap="round" stroke-linejoin="round" stroke-width="10" vectornator:layerName="Curve 1"/>
<path d="M364.693 367.512C344.24 376.139 360.513 335.857 375.789 339.687C398.889 345.48 381.991 385.457 362.227 378.023C350.547 373.63 349.062 347.041 363.46 344.634C375.549 342.613 378.057 376.084 368.392 378.023C351.382 381.436 385.717 358.644 364.693 367.512Z" fill="none" opacity="1" stroke="#000000" stroke-linecap="round" stroke-linejoin="round" stroke-width="10" vectornator:layerName="Curve 2"/>
<path d="M370.858 360.71C369.387 356.035 364.252 353.554 363.46 349.58C360.608 335.276 395.047 355.978 386.885 366.893C384.726 369.781 365.926 370.054 365.926 364.42C365.926 356.846 380.721 348.931 380.721 358.237C380.721 365.701 372.737 366.686 370.858 360.71Z" fill="none" opacity="1" stroke="#000000" stroke-linecap="round" stroke-linejoin="round" stroke-width="10" vectornator:layerName="Curve 3"/>
<path d="M379.488 522.093C376.651 542.831 356.039 511.596 368.392 504.162C388.876 491.833 407.832 512.578 393.05 521.475C367.533 536.831 362.451 490.446 384.42 496.742C408.027 503.507 386.844 537.287 365.926 528.895C347.731 521.595 377.271 492.045 389.351 504.162C398.111 512.948 383.577 524.491 374.556 521.475C361.197 517.008 377.245 504.892 385.652 509.108C387.944 510.258 386.5 514.228 385.652 515.291C372.61 531.643 382.627 499.148 379.488 522.093Z" fill="none" opacity="1" stroke="#000000" stroke-linecap="round" stroke-linejoin="round" stroke-width="10" vectornator:layerName="Curve 4"/>
<path d="M352.364 258.068C323.905 258.068 299.789 273.428 274.691 285.275C251.833 296.064 226.586 305.212 210.579 326.084C178.774 367.556 184.558 411.64 188.387 459.642C190.582 487.169 188.93 515.846 197.017 542.498C218.887 614.574 296.453 669.901 370.858 664.926C413.762 662.057 450.452 642.472 483.052 615.46C573.313 540.671 581.748 446.258 504.012 354.527C471.261 315.879 378.897 250.326 326.473 276.618" fill="none" opacity="1" stroke="#000000" stroke-linecap="round" stroke-linejoin="round" stroke-width="10" vectornator:layerName="Curve 5"/>
<path d="M343.733 271.053C296.616 293.615 354.587 226.788 369.625 249.412C389.685 279.594 325.907 293.058 331.404 265.488C334.261 251.162 366.599 255.146 370.858 267.962C377.163 286.936 339.014 289.197 330.171 280.328C317.576 267.695 351.611 240.096 363.46 254.358C378.12 272.003 333.719 308.83 321.541 280.328C313.091 260.552 349.916 242.638 360.994 259.305C369.628 272.294 350.312 290.47 337.569 282.801C327.726 276.878 343.59 252.817 353.597 256.832C375.116 265.466 344.966 284.689 344.966 266.725C344.966 260.277 362.872 262.16 364.693 266.725C368.106 275.283 342.264 288.034 340.035 279.091C338.83 274.257 358.502 253.095 363.46 258.068C373.117 267.755 362.317 291.835 348.665 281.565C324.784 263.599 367.51 248.701 369.625 259.305C370.821 265.303 346.596 269.682 343.733 271.053Z" fill="none" opacity="1" stroke="#000000" stroke-linecap="round" stroke-linejoin="round" stroke-width="10" vectornator:layerName="Curve 6"/>
<path d="M191.469 486.23C180.697 497.598 179.734 450.273 199.483 455.932C225.193 463.3 195.939 506.442 184.688 497.978C172.415 488.746 166.313 453.067 190.853 457.169C212.147 460.729 218.13 501.556 188.387 493.032C165.096 486.357 180.189 446.954 199.483 454.696C213.923 460.489 210.159 494.325 188.387 488.085C164.1 481.125 186.345 454.456 203.182 464.589C220.721 475.144 194.513 497.928 183.455 483.139C178.538 476.563 188.173 468.639 194.551 470.772C202.754 473.514 195.784 486.44 195.784 481.902C195.784 478.353 201.498 475.646 191.469 486.23Z" fill="none" opacity="1" stroke="#000000" stroke-linecap="round" stroke-linejoin="round" stroke-width="10" vectornator:layerName="Curve 7"/>
<path d="M556.411 507.872C528.821 504.151 573.705 470.232 579.219 483.139C591.508 511.899 544.396 528.315 538.533 493.032C535.676 475.835 573.983 468.634 576.754 488.085C579.543 507.671 549.885 517.296 543.465 497.978C534.458 470.875 595.661 486.021 574.288 512.818C562.06 528.149 525.637 503.494 540.999 488.085C554.166 474.879 578.833 475.96 575.521 499.215C573.863 510.852 546.31 518.431 543.465 504.162C539.979 486.681 575.215 497.82 571.822 502.925C562.327 517.21 556.666 483.576 565.657 488.085C572.139 491.336 571.379 515.856 560.726 511.581C552.456 508.264 556.638 487.265 566.89 489.322C584.606 492.876 560.305 508.397 556.411 507.872Z" fill="none" opacity="1" stroke="#000000" stroke-linecap="round" stroke-linejoin="round" stroke-width="10" vectornator:layerName="Curve 8"/>
<path d="M387.502 678.529C352.226 710.645 369.052 628.748 396.749 652.56C414.386 667.724 393.061 695.107 375.789 684.712C355.452 672.473 378.247 627.202 395.516 640.193C399.43 643.138 400.447 653.096 400.447 657.506C400.447 696.816 351.397 678.967 356.063 664.926C361.423 648.796 414.459 644.799 406.612 672.346C402.716 686.025 366.382 678.164 370.858 662.453C374.33 650.263 406.767 650.778 401.68 668.636C399.376 676.725 368.15 694.632 365.926 683.476C363.959 673.614 383.367 656.8 393.05 658.743C401.237 660.385 389.308 681.599 380.721 677.293C372.429 673.134 384.34 662.437 390.584 663.689C404.924 666.566 382.414 671.718 381.954 669.873C380.95 665.844 390.796 658.58 394.283 659.979C404.011 663.883 388.683 677.454 387.502 678.529Z" fill="none" opacity="1" stroke="#000000" stroke-linecap="round" stroke-linejoin="round" stroke-width="10" vectornator:layerName="Curve 9"/>
<path d="M958.956 357C909.54 332.217 879.263 399.706 884.981 439.856C891.91 488.502 952.83 516.331 995.943 514.055C1015.58 513.018 1037.77 507.364 1053.89 495.505C1071.44 482.597 1081.11 460.238 1085.95 439.856C1099.47 382.874 1039.33 351.198 989.778 342.161C977.629 339.945 935.058 341.11 930.599 354.527" fill="none" opacity="1" stroke="#000000" stroke-linecap="round" stroke-linejoin="round" stroke-width="10" vectornator:layerName="Curve 10"/>
<path d="M984.23 357.619C950.39 351.165 993.409 311.829 1007.04 318.664C1023.3 326.82 1028.24 367.631 1002.11 354.527C963.039 334.933 997.53 314.073 1010.74 327.321C1026.69 343.321 996.783 373.779 981.148 360.71C949.001 333.84 1007.32 308.373 1019.37 344.634C1025.86 364.156 978.282 352.857 984.847 339.687C987.949 333.464 1013.97 326.973 1015.67 337.214C1019.1 357.852 985.977 374.004 978.682 352.054C971.583 330.693 1029.24 324.816 1019.37 349.58C1016.36 357.123 989.372 358.658 986.08 352.054C984.244 348.371 1009.86 338.374 1010.74 339.687C1013.23 343.44 999.735 352.719 995.943 350.817C989.704 347.688 1002.05 339.506 1002.11 339.687C1006.69 353.467 988.04 358.345 984.23 357.619Z" fill="none" opacity="1" stroke="#000000" stroke-linecap="round" stroke-linejoin="round" stroke-width="10" vectornator:layerName="Curve 11"/>
<path d="M991.628 522.093C977.393 514.166 973.055 474.736 997.176 478.192C1020.33 481.51 1015.1 527.15 988.546 522.711C962.892 518.423 985.32 482.472 1005.81 489.322C1029.44 497.224 1019.85 540.407 984.847 532.605C953.871 525.7 988.638 492.84 1003.34 501.688C1014.33 508.301 1012.27 530.182 997.176 527.658C985.431 525.695 971.59 497.978 989.778 497.978C999.513 497.978 1005.39 525.268 993.477 527.658C976.347 531.094 976.234 500.713 983.614 506.635C987.81 510.002 997.335 525.271 991.628 522.093Z" fill="none" opacity="1" stroke="#000000" stroke-linecap="round" stroke-linejoin="round" stroke-width="10" vectornator:layerName="Curve 12"/>
<path d="M994.094 507.872C993.145 525.992 989.759 471.259 1007.04 478.192C1012.65 480.443 1018.77 506.404 1015.67 511.581C1000.11 537.596 965.064 476.955 991.011 476.955C1013.18 476.955 1011.03 525.302 986.08 515.291C969.32 508.567 994.11 470.17 1010.74 486.848C1032.43 508.603 992.844 527.023 976.216 510.345C967.979 502.082 989.428 486.614 997.176 491.795C999.889 493.609 1006.6 512.419 1003.34 514.055C998.504 516.481 983.835 502.261 984.847 499.215C986.323 494.773 995.526 515.291 983.614 515.291C975.4 515.291 987.03 500.106 987.313 500.452C991.155 505.162 994.274 504.421 994.094 507.872Z" fill="none" opacity="1" stroke="#000000" stroke-linecap="round" stroke-linejoin="round" stroke-width="10" vectornator:layerName="Curve 13"/>
<path d="M1002.11 244.465C921.266 224.193 849.913 302.74 825.801 371.84C799.079 448.423 788.081 574.426 856.624 634.01C880.147 654.458 916.87 662.418 946.627 668.636C1042.73 688.719 1138.45 615.304 1156.22 520.238C1168.55 454.306 1145.74 375.542 1106.9 323.611C1097.25 310.705 1093.24 296.898 1079.78 286.511C1047.5 261.608 1004.99 263.015 967.586 263.015" fill="none" opacity="1" stroke="#000000" stroke-linecap="round" stroke-linejoin="round" stroke-width="10" vectornator:layerName="Curve 14"/>
<path d="M973.134 263.015C967.532 259.946 957.308 267.269 954.024 261.778C951.12 256.924 974.573 209.154 991.011 253.122C992.802 257.91 997.216 267.908 993.477 272.908C978.782 292.561 943.66 270.002 956.49 249.412C969.508 228.52 1006.91 223.06 1015.67 249.412C1021.72 267.627 951.772 275.976 961.422 246.938C969.904 221.414 1020.54 230.471 1011.97 260.542C1007.15 277.479 959.139 285.225 962.654 260.542C966.165 235.896 1018.67 242.39 1008.27 266.725C1002.37 280.541 958.793 279.663 963.887 261.778C969.156 243.281 1006.78 253.774 999.642 271.671C996.661 279.147 972.101 282.017 973.751 270.435C975.185 260.367 997.457 259.391 1000.87 267.962C1004.43 276.867 981.521 281.075 978.682 275.381C968.973 255.903 1025.2 255.517 1020.6 271.671C1014.95 291.507 955.64 283.352 960.189 260.542C964.849 237.17 1016.74 239.096 1010.74 269.198C1006.97 288.075 945.094 287.412 952.791 264.252C956.189 254.027 993.852 224.355 1003.34 237.045C1019.83 259.103 989.806 288.074 967.586 274.145C943.515 259.055 966.43 228.131 989.778 233.335C1000.96 235.829 1018.52 265.732 1002.11 270.435C994.09 272.733 977.845 265.596 973.134 263.015Z" fill="none" opacity="1" stroke="#000000" stroke-linecap="round" stroke-linejoin="round" stroke-width="10" vectornator:layerName="Curve 15"/>
<path d="M1156.22 475.719C1156.22 466.641 1146.32 466.791 1145.13 458.406C1143.93 449.998 1159.16 430.91 1166.08 444.802C1170.75 454.169 1175.13 499.496 1152.52 484.375C1131.56 470.359 1144.11 417.744 1169.78 434.909C1186.9 446.352 1182.2 489.982 1156.22 476.955C1126.77 462.184 1168.79 420.642 1179.65 446.039C1195.02 482.022 1141.17 486.252 1137.73 462.116C1135.8 448.588 1175.95 436.792 1175.95 455.932C1175.95 463.841 1158.69 463.261 1158.69 455.932C1158.69 441.042 1171.58 446.5 1174.72 455.932" fill="none" opacity="1" stroke="#000000" stroke-linecap="round" stroke-linejoin="round" stroke-width="10" vectornator:layerName="Curve 16"/>
<path d="M984.23 679.766C973.73 695.697 952.863 678.894 956.49 666.163C961.885 647.224 997.205 635.736 1005.81 658.743C1014.6 682.252 969.955 703.068 958.956 681.002C950.174 663.385 979.033 633.125 994.71 648.85C1020.69 674.907 971.347 710.776 954.024 684.712C940.325 664.102 984.281 636.812 997.176 657.506C1008.41 675.531 992.443 695.962 973.751 684.712C953.732 672.665 984.856 640.203 998.409 653.796C1016.46 671.907 983.089 691.606 968.819 677.293C958.729 667.172 996.661 649.929 1005.81 663.689C1015.35 678.047 985.735 694.26 976.216 684.712C965.521 673.985 993.392 651.237 999.642 657.506C1011.6 669.5 980.977 679.217 982.381 673.583C983.594 668.717 986.891 675.73 984.23 679.766Z" fill="none" opacity="1" stroke="#000000" stroke-linecap="round" stroke-linejoin="round" stroke-width="10" vectornator:layerName="Curve 17"/>
<path d="M780.184 423.779L785.115 418.833" fill="none" opacity="1" stroke="#000000" stroke-linecap="round" stroke-linejoin="round" stroke-width="10" vectornator:layerName="Curve 18"/>
<path d="M817.787 421.306C818.404 421.306 820.253 421.306 819.637 421.306C817.171 421.306 814.705 421.306 817.787 421.306Z" fill="none" opacity="1" stroke="#000000" stroke-linecap="round" stroke-linejoin="round" stroke-width="10" vectornator:layerName="Curve 19"/>
<path d="M841.213 423.161C841.92 423.673 843.788 425.501 843.062 425.016C840.644 423.399 838.621 421.284 841.213 423.161Z" fill="none" opacity="1" stroke="#000000" stroke-linecap="round" stroke-linejoin="round" stroke-width="10" vectornator:layerName="Curve 20"/>
<path d="M850.46 438.619C846.831 440.439 848.284 438.981 846.761 443.566" fill="none" opacity="1" stroke="#000000" stroke-linecap="round" stroke-linejoin="round" stroke-width="10" vectornator:layerName="Curve 21"/>
<path d="M866.487 473.245C866.487 474.07 866.487 476.543 866.487 475.719C866.487 472.009 866.487 468.299 866.487 473.245Z" fill="none" opacity="1" stroke="#000000" stroke-linecap="round" stroke-linejoin="round" stroke-width="10" vectornator:layerName="Curve 22"/>
<path d="M847.994 500.452C838.448 510.026 835.299 517.765 819.637 517.765" fill="none" opacity="1" stroke="#000000" stroke-linecap="round" stroke-linejoin="round" stroke-width="10" vectornator:layerName="Curve 23"/>
<path d="M804.842 522.711C804.27 522.814 803.058 524.132 803.609 523.948C805.709 523.246 807.702 522.198 804.842 522.711Z" fill="none" opacity="1" stroke="#000000" stroke-linecap="round" stroke-linejoin="round" stroke-width="10" vectornator:layerName="Curve 24"/>
<path d="M783.882 514.055C782.65 514.055 781.417 514.055 780.184 514.055" fill="none" opacity="1" stroke="#000000" stroke-linecap="round" stroke-linejoin="round" stroke-width="10" vectornator:layerName="Curve 25"/>
<path d="M766.622 496.742C766.622 495.505 766.622 494.268 766.622 493.032" fill="none" opacity="1" stroke="#000000" stroke-linecap="round" stroke-linejoin="round" stroke-width="10" vectornator:layerName="Curve 26"/>
<path d="M765.389 473.245L759.224 468.299" fill="none" opacity="1" stroke="#000000" stroke-linecap="round" stroke-linejoin="round" stroke-width="10" vectornator:layerName="Curve 27"/>
<path d="M765.389 444.802C760.771 444.802 762.241 445.909 760.457 442.329" fill="none" opacity="1" stroke="#000000" stroke-linecap="round" stroke-linejoin="round" stroke-width="10" vectornator:layerName="Curve 28"/>
<path d="M49.0679 201.182C42.9508 188.911 48.7816 250.977 49.0679 259.305C50.6127 304.239 56.4654 349.071 56.4654 394.1C56.4654 502.571 50.9947 609.202 66.3287 716.865C67.4721 724.894 70.5279 799.354 71.2603 799.721C114.091 821.201 167.239 812.263 213.045 814.561C260.663 816.949 308.46 816.926 356.063 819.507C440.743 824.098 525.393 824.215 610.042 828.164C728.468 833.689 846.651 846.803 965.12 852.897C1035.84 856.535 1107.61 856.607 1178.41 856.607C1185.33 856.607 1231.7 860.74 1235.13 850.423C1242.54 828.108 1226.5 792.816 1226.5 770.041C1226.5 700.467 1225 631.74 1230.2 562.284C1239.06 443.765 1234.87 322.592 1238.83 203.656C1240.17 163.242 1248.47 113.456 1221.57 78.7542C1203.85 55.9121 1168.17 55.9894 1142.66 54.0212C1066.3 48.1298 984.436 62.6508 908.406 67.6243C816.792 73.6173 724.985 71.4913 633.467 79.9908C521.207 90.4169 411.977 115.103 300.582 130.693C219.718 142.011 137.771 148.02 57.6983 164.083" fill="none" opacity="1" stroke="#000000" stroke-linecap="round" stroke-linejoin="round" stroke-width="10" vectornator:layerName="Curve 29"/>
<path d="M1298.01 454.696C1275.88 449.148 1310.66 445.857 1317.73 447.276C1347.39 453.226 1388.11 473.194 1417.6 458.406" fill="none" opacity="1" stroke="#000000" stroke-linecap="round" stroke-linejoin="round" stroke-width="10" vectornator:layerName="Curve 30"/>
<path d="M1365.82 426.253C1377.25 426.253 1466.68 435.969 1468.15 444.802C1472.57 471.416 1414.19 498.037 1396.64 511.581C1391.18 515.794 1374.91 530.557 1388.01 533.841" fill="none" opacity="1" stroke="#000000" stroke-linecap="round" stroke-linejoin="round" stroke-width="10" vectornator:layerName="Curve 31"/>
<path d="M1367.05 427.489C1370.01 427.489 1374.45 422.543 1374.45 422.543C1374.45 422.543 1380.8 447.336 1384.31 459.642C1386.21 466.323 1401.77 527.463 1395.41 533.841C1395.07 534.177 1394.17 521.374 1394.17 520.238" fill="none" opacity="1" stroke="#000000" stroke-linecap="round" stroke-linejoin="round" stroke-width="10" vectornator:layerName="Curve 32"/>
<path d="M1412.67 499.215C1410.66 503.246 1420.22 490.045 1423.76 486.848C1433.68 477.895 1443.41 469.587 1454.59 462.116C1459.34 458.939 1471.93 448.337 1469.38 453.459C1462.79 466.689 1400.34 495.056 1400.34 502.925C1400.34 505.027 1404.89 503.034 1406.5 501.688C1416.23 493.559 1440.56 454.696 1454.59 454.696C1459.53 454.696 1447.29 461.411 1443.49 464.589C1439.89 467.598 1436.05 470.309 1432.39 473.245C1420.53 482.761 1403.56 489.796 1392.94 500.452C1391.89 501.503 1395.43 498.842 1396.64 497.978C1399.87 495.666 1404.84 491.738 1407.74 489.322C1410.65 486.889 1413.49 484.375 1416.37 481.902C1430.08 470.114 1443.74 456.318 1459.52 447.276C1460.65 446.629 1462.3 445.117 1463.22 446.039C1464.35 447.172 1444.27 461.591 1443.49 462.116C1436.92 466.511 1406.53 489.652 1397.87 483.139C1385.36 473.727 1446.74 450.195 1449.65 447.276C1451.22 445.706 1445.52 448.875 1443.49 449.749C1440.11 451.201 1436.84 452.905 1433.63 454.696C1425.05 459.472 1416.46 463.922 1407.74 468.299C1403.63 470.36 1390.81 474.482 1395.41 474.482C1407.53 474.482 1431.62 453.203 1442.26 447.276C1444.99 445.751 1449.49 440.758 1450.89 443.566C1451.55 444.895 1449.47 446.225 1448.42 447.276C1434.86 460.879 1411.49 469.509 1394.17 476.955C1388.42 479.429 1374.11 489.991 1376.91 484.375C1381.96 474.248 1402.16 466.045 1411.43 460.879C1412.1 460.508 1433.63 448.07 1433.63 448.512C1433.63 454.473 1393.49 474.209 1388.01 472.009C1385.82 471.131 1386.63 446.981 1384.31 442.329C1382.12 437.935 1377.17 432.938 1373.21 429.963C1371.74 428.857 1368.28 425.646 1368.28 427.489C1368.28 434.765 1415.53 440.253 1421.3 446.039C1421.95 446.691 1423.18 447.861 1422.53 448.512C1417.84 453.215 1394.25 446.059 1389.24 444.802C1388.46 444.606 1376.86 441.144 1376.91 441.092C1378.48 439.52 1435.89 444.906 1445.96 439.856C1448.19 438.734 1441.04 440.781 1438.56 441.092C1434.46 441.606 1430.29 441.588 1426.23 442.329C1423.62 442.805 1395.41 446.239 1395.41 449.749C1395.41 458.962 1435.54 447.405 1434.86 446.039C1433.05 442.408 1386.6 455.411 1388.01 449.749C1390.95 437.965 1435.9 461.984 1434.86 464.589C1432.11 471.474 1404.83 484.157 1397.87 480.665C1391.42 477.429 1403.6 465.753 1406.5 464.589C1410.56 462.961 1419.04 476.442 1415.13 474.482C1407.67 470.739 1402.54 433.673 1395.41 433.673C1390.89 433.673 1395.41 442.741 1395.41 447.276C1395.41 463.374 1420.93 485.067 1413.9 474.482" fill="none" opacity="1" stroke="#000000" stroke-linecap="round" stroke-linejoin="round" stroke-width="10" vectornator:layerName="Curve 33"/>
<path d="M1547.53 77.79C1530.97 77.79 1542.96 193.285 1543.71 204.203C1544.53 216.122 1545.8 228.017 1546.25 239.956C1548.35 294.514 1553.07 348.869 1555.16 403.398C1558.7 495.51 1548.48 588.23 1553.89 680.485C1555.91 714.829 1557.17 751.285 1562.8 785.19C1563.43 788.987 1571.53 817.234 1567.89 819.666C1560.15 824.844 1611.13 815.967 1627.73 819.666C1677.09 830.67 1726.52 820.943 1776.67 820.943C1913.2 820.943 2047.09 824.372 2182.77 837.543C2274.92 846.488 2367.9 877.584 2461.57 868.188C2476.68 866.672 2522.77 870.648 2535.4 857.973C2541.23 852.129 2542.61 841.059 2550.68 834.989C2561.83 826.596 2585.57 832.164 2593.96 820.943C2600.19 812.618 2584.32 750.089 2582.5 737.945C2571.51 664.464 2558.32 586.267 2558.32 511.935C2558.32 408.876 2550.68 306.156 2550.68 202.926C2550.68 171.144 2563.86 115.873 2541.77 89.2821C2525.28 69.4367 2492.91 74.0062 2470.48 72.6824C2407.23 68.9506 2344.1 77.0617 2280.79 72.6824C2116.4 61.3108 1949.44 30.9948 1784.31 42.037C1747.6 44.4917 1711.53 53.1379 1674.83 56.0828C1621 60.4021 1562.68 50.1651 1510.61 67.5749" fill="none" opacity="1" stroke="#000000" stroke-linecap="round" stroke-linejoin="round" stroke-width="10" vectornator:layerName="Curve 34"/>
<path d="M1826.32 344.661C1829.38 347.069 1806.33 345.112 1797.04 349.769C1779 358.817 1768.5 377.216 1762.67 395.737C1747.71 443.239 1769.35 497.889 1825.05 497.889C1879.93 497.889 1906.3 449.33 1912.89 400.845C1914.48 389.126 1916.95 374.578 1910.34 363.815C1898.77 344.961 1869.3 345.877 1850.51 342.107C1844.09 340.819 1836.7 339.554 1830.14 339.554C1828.68 339.554 1819.62 339.261 1819.96 339.554C1823.68 342.822 1824.65 343.347 1826.32 344.661Z" fill="none" opacity="1" stroke="#000000" stroke-linecap="round" stroke-linejoin="round" stroke-width="10" vectornator:layerName="Curve 35"/>
<path d="M2223.51 370.199C2193.18 339.782 2155.28 402.464 2157.31 428.936C2158.56 445.246 2169.2 457.553 2181.5 467.243C2230.1 505.545 2300.33 478.215 2325.35 423.829C2349.19 372.014 2241.28 324.265 2203.14 349.769" fill="none" opacity="1" stroke="#000000" stroke-linecap="round" stroke-linejoin="round" stroke-width="10" vectornator:layerName="Curve 36"/>
<path d="M1874.7 202.926C1823.78 185.902 1757.74 229.254 1721.93 260.386C1688.6 289.363 1651.49 315.817 1632.82 357.43C1604.86 419.76 1613.96 539.099 1660.83 592.379C1675.29 608.816 1695.61 617.294 1715.57 624.301C1832.68 665.416 1972.95 608.656 2042.74 510.658C2084.21 452.412 2109.43 384.249 2068.2 316.57C2033.43 259.501 1953.39 199.306 1884.88 195.264C1860.18 193.807 1815.46 199.86 1805.95 228.464" fill="none" opacity="1" stroke="#000000" stroke-linecap="round" stroke-linejoin="round" stroke-width="10" vectornator:layerName="Curve 37"/>
<path d="M2087.29 416.167C2065.92 416.167 2076.13 373.382 2078.38 358.707C2085.84 310.098 2114.25 262.807 2157.31 237.402C2201.85 211.12 2289.36 207.148 2336.81 227.187C2357.81 236.056 2377.27 249.251 2397.91 259.109C2416.13 267.812 2437.38 276.134 2452.65 289.755C2506.21 337.504 2544.21 447.176 2525.22 517.042C2511.89 566.053 2450.98 630.332 2403.01 643.455C2379.96 649.76 2358.74 646.041 2335.53 643.455C2266.89 635.805 2183.66 632.148 2134.4 574.502C2101.53 536.038 2102.8 487.552 2093.66 441.705C2091.44 430.573 2075.29 405.407 2079.65 394.46C2083.86 383.905 2090.99 377.98 2098.75 370.199" fill="none" opacity="1" stroke="#000000" stroke-linecap="round" stroke-linejoin="round" stroke-width="10" vectornator:layerName="Curve 38"/>
<path d="M413.889 291.67C398.493 296.42 421.016 251.616 432.348 266.771C446.485 285.677 431.007 311.394 410.706 291.032C400.33 280.624 423.91 272.873 431.075 278.263C444.079 288.045 421.701 309.721 413.252 301.247C412.104 300.095 410.958 295.1 410.706 293.585C406.286 266.984 444.671 290.598 433.621 296.139C412.388 306.788 425.604 253.368 437.44 273.155C453.631 300.222 423.622 288.667 413.889 291.67Z" fill="none" opacity="1" stroke="#000000" stroke-linecap="round" stroke-linejoin="round" stroke-width="10" vectornator:layerName="Curve 39"/>
<path d="M177.104 416.806C160.983 422.368 184.665 380.097 199.383 391.906C213.389 403.145 206.036 437.026 184.106 423.829C160.406 409.566 196.925 388.343 203.202 407.229C209.205 425.295 164.093 423.117 171.376 408.506C174.646 401.947 200.856 396.139 204.475 403.398C209.155 412.788 187.467 425.76 180.287 419.998C154.879 399.61 222.103 389.483 191.744 409.783C189.499 411.284 185.397 412.328 182.833 413.614C177.323 416.377 181.503 415.288 177.104 416.806Z" fill="none" opacity="1" stroke="#000000" stroke-linecap="round" stroke-linejoin="round" stroke-width="10" vectornator:layerName="Curve 40"/>
<path d="M315.229 668.354C298.05 694.135 292.89 625.229 319.048 638.347C341.558 649.637 329.808 679.496 308.864 668.993C292.714 660.893 308.953 625.359 325.413 631.963C343.861 639.364 322.977 677.116 302.498 670.27C287.622 665.296 310.336 635.944 325.413 647.285C342.167 659.889 296.259 665.611 310.137 644.732C313.227 640.082 317.759 646.623 319.048 648.562C328.877 663.351 319.368 662.143 315.229 668.354Z" fill="none" opacity="1" stroke="#000000" stroke-linecap="round" stroke-linejoin="round" stroke-width="10" vectornator:layerName="Curve 41"/>
<path d="M535.464 455.751C531.779 453.903 532.918 455.426 532.918 450.644" fill="none" opacity="1" stroke="#000000" stroke-linecap="round" stroke-linejoin="round" stroke-width="10" vectornator:layerName="Curve 42"/>
<path d="M518.914 427.659L511.276 423.829" fill="none" opacity="1" stroke="#000000" stroke-linecap="round" stroke-linejoin="round" stroke-width="10" vectornator:layerName="Curve 43"/>
<path d="M562.197 390.629L567.29 395.737" fill="none" opacity="1" stroke="#000000" stroke-linecap="round" stroke-linejoin="round" stroke-width="10" vectornator:layerName="Curve 44"/>
<path d="M582.566 395.737C582.566 396.588 582.566 397.44 582.566 398.291" fill="none" opacity="1" stroke="#000000" stroke-linecap="round" stroke-linejoin="round" stroke-width="10" vectornator:layerName="Curve 45"/>
<path d="M594.023 437.875L587.658 446.813" fill="none" opacity="1" stroke="#000000" stroke-linecap="round" stroke-linejoin="round" stroke-width="10" vectornator:layerName="Curve 46"/>
<path d="M577.474 446.813C573.979 446.813 575.687 446.432 572.382 448.09" fill="none" opacity="1" stroke="#000000" stroke-linecap="round" stroke-linejoin="round" stroke-width="10" vectornator:layerName="Curve 47"/>
<path d="M522.733 411.06C518.109 412.606 518.914 413.683 518.914 409.783" fill="none" opacity="1" stroke="#000000" stroke-linecap="round" stroke-linejoin="round" stroke-width="10" vectornator:layerName="Curve 48"/>
<path d="M532.918 398.291C533.766 397.44 534.615 396.588 535.464 395.737" fill="none" opacity="1" stroke="#000000" stroke-linecap="round" stroke-linejoin="round" stroke-width="10" vectornator:layerName="Curve 49"/>
<path d="M591.477 414.89C590.629 415.316 589.78 415.742 588.931 416.167" fill="none" opacity="1" stroke="#000000" stroke-linecap="round" stroke-linejoin="round" stroke-width="10" vectornator:layerName="Curve 50"/>
<path d="M592.75 418.721C592.75 419.572 592.75 420.424 592.75 421.275" fill="none" opacity="1" stroke="#000000" stroke-linecap="round" stroke-linejoin="round" stroke-width="10" vectornator:layerName="Curve 51"/>
<path d="M813.622 391.268C803.291 403.746 803.428 359.022 823.17 368.922C848.156 381.453 816.336 405.689 812.985 385.522C812.316 381.496 812.414 374.955 816.804 372.753C825.842 368.221 831.833 390.364 828.262 395.737C819.846 408.399 801.404 381.24 807.893 371.476C812.589 364.41 831.969 373.47 833.354 380.414C835.999 393.68 808.836 391.409 804.074 384.245C797.896 374.95 829.826 366.907 835.9 371.476C849.23 381.504 814.784 389.864 813.622 391.268Z" fill="none" opacity="1" stroke="#000000" stroke-linecap="round" stroke-linejoin="round" stroke-width="10" vectornator:layerName="Curve 52"/>
<path d="M1057.41 276.347C1037.88 279.157 1038.73 243.363 1052.32 239.956C1067.49 236.152 1087.76 274.472 1062.5 279.54C1039.49 284.156 1034.55 240.701 1067.59 250.171C1096.22 258.376 1062.21 302.237 1040.86 280.816C1024.44 264.35 1058.2 247.719 1071.41 256.555C1080.92 262.912 1077.05 282.869 1063.77 279.54C1051.17 276.38 1051.69 249.22 1066.32 256.555C1073.59 260.203 1077.63 280.816 1066.32 280.816C1055.48 280.816 1051.6 261.552 1063.77 259.109C1071.76 257.508 1080.37 265.12 1073.96 273.155C1071 276.867 1058.08 284.041 1053.59 279.54C1051.01 276.951 1065.47 271.027 1062.5 273.155C1058.33 276.144 1061.74 275.724 1057.41 276.347Z" fill="none" opacity="1" stroke="#000000" stroke-linecap="round" stroke-linejoin="round" stroke-width="10" vectornator:layerName="Curve 53"/>
<path d="M1152.89 397.652C1132.05 412.364 1146.28 387.201 1155.43 381.691C1165.39 375.698 1181.79 389.047 1175.8 399.568C1167.62 413.933 1138.22 417.071 1131.24 399.568C1126.14 386.757 1153.75 364.541 1161.8 375.307C1175.26 393.308 1131.63 421.934 1127.42 400.845C1124.89 388.112 1155.81 370.584 1164.34 379.137C1178.03 392.862 1135.76 402.931 1133.79 397.014C1131.75 390.861 1162.03 383.906 1164.34 393.183C1169.04 412.034 1133 371.079 1159.25 384.245C1166.74 387.999 1154.71 396.363 1152.89 397.652Z" fill="none" opacity="1" stroke="#000000" stroke-linecap="round" stroke-linejoin="round" stroke-width="10" vectornator:layerName="Curve 54"/>
<path d="M914.828 668.354C913.158 664.609 898.964 670.368 897.006 666.439C890.422 653.233 919.037 628.914 926.285 643.455C937.404 665.759 902.549 690.329 893.186 671.546C886.562 658.257 921.483 643.891 926.285 651.116C934.431 663.372 903.863 697.578 891.913 685.592C880.897 674.543 914.04 641.388 926.285 653.67C934.96 662.371 924.235 682.135 913.555 674.1C901.242 664.838 914.672 640.327 928.831 646.009C944.79 652.411 930.759 680.492 914.828 674.1C903.949 669.736 908.82 647.83 922.466 652.393C949.004 661.266 918.619 676.856 914.828 668.354Z" fill="none" opacity="1" stroke="#000000" stroke-linecap="round" stroke-linejoin="round" stroke-width="10" vectornator:layerName="Curve 55"/>
<path d="M2084.75 344.023C2073.42 341.822 2039.08 320.771 2074.56 308.908C2088.14 304.369 2109.6 317.424 2105.12 333.169C2097.59 359.589 2050.96 348.593 2059.29 331.892C2061.74 326.97 2070.15 327.338 2074.56 326.785C2107.28 322.683 2087.34 362.803 2066.92 358.707C2047.58 354.827 2064.56 309.883 2086.02 324.231C2093.01 328.905 2099.68 357.314 2084.75 352.323C2077.7 349.965 2062.92 332.38 2075.84 328.062C2086.85 324.378 2098.92 343.696 2089.84 349.769C2082.34 354.785 2068.43 330.877 2079.65 328.062C2094.8 324.263 2099.61 351.046 2086.02 351.046C2069.43 351.046 2071.41 314.349 2088.57 322.954C2100.78 329.078 2084.33 345.963 2082.2 339.554C2080.48 334.383 2097.82 326.785 2092.39 326.785C2086.28 326.785 2085.3 342.717 2079.65 340.831C2077.18 340.003 2073.05 323.948 2074.56 321.677C2079.9 313.648 2111.27 327.843 2108.93 339.554C2105.83 355.143 2061.75 354.311 2059.29 337C2053.52 296.518 2111.53 313.829 2106.39 334.446C2103.42 346.363 2050.83 336.435 2065.65 317.846C2076.38 304.397 2102.54 330.671 2096.2 343.384C2087.95 359.95 2053.79 340.784 2059.29 324.231C2065.15 306.593 2112.09 349.338 2084.75 344.023Z" fill="none" opacity="1" stroke="#000000" stroke-linecap="round" stroke-linejoin="round" stroke-width="10" vectornator:layerName="Curve 56"/>
<path d="M2068.2 446.813C2057.3 489.607 2061.01 384.694 2088.57 412.337C2093.86 417.645 2094.48 428.414 2096.2 435.321C2104.28 467.725 2052.94 449.252 2056.74 430.213C2059.88 414.485 2102.69 413.849 2108.93 426.383C2121.66 451.915 2064.32 470.905 2056.74 448.09C2049.89 427.463 2085.18 407.874 2097.48 426.383C2112.07 448.337 2071.94 452.904 2068.2 437.875C2064.13 421.557 2118.5 417.582 2096.2 445.536C2094.6 447.544 2091.33 451.524 2088.57 451.92C2054.34 456.825 2084.33 406.401 2093.66 425.106C2098.65 435.127 2088.85 462.816 2077.11 448.09C2071.04 440.475 2082.09 421.558 2088.57 430.213C2096.33 440.597 2075.46 443.984 2069.47 442.982C2067.69 442.685 2065.5 437.352 2065.65 439.151C2066.15 445.15 2069.27 442.607 2068.2 446.813Z" fill="none" opacity="1" stroke="#000000" stroke-linecap="round" stroke-linejoin="round" stroke-width="10" vectornator:layerName="Curve 57"/>
<path d="M2231.15 366.368C2207.64 366.368 2227.47 320.022 2247.7 326.785C2277.44 336.731 2251.42 390.532 2213.32 352.323C2210.15 349.139 2206.99 347.1 2208.23 342.107C2211.62 328.526 2247.37 343.522 2250.24 353.599C2256.29 374.823 2218.34 391.844 2203.14 379.137C2175.37 355.928 2243.84 309.673 2260.43 348.492C2270.99 373.216 2216.87 373.671 2220.96 340.831C2225.01 308.336 2272.79 345.029 2250.24 367.645C2226.93 391.031 2205.11 320.748 2242.6 339.554C2269.31 352.946 2215.87 370.918 2215.87 358.707C2215.87 342.425 2279.44 331.382 2257.88 363.815C2248.77 377.525 2211.38 374.436 2219.69 353.599C2223.53 343.976 2243.38 344.246 2245.15 354.876C2247.97 371.859 2215.73 387.264 2213.32 372.753C2212.44 367.448 2226.21 362.188 2229.87 359.984C2250.62 347.498 2238.47 378.42 2220.96 374.03C2206.31 370.356 2228.63 345.938 2233.69 345.938C2234.99 345.938 2231.44 354.139 2231.15 354.876C2226.81 365.749 2222.87 370.839 2213.32 361.261C2211.35 359.279 2208.82 356.532 2208.23 353.599C2206.68 345.811 2232.15 338.869 2234.97 345.938C2238.91 355.823 2204.58 366.869 2204.41 366.368C2201.72 358.271 2229.74 342.645 2234.97 338.277" fill="none" opacity="1" stroke="#000000" stroke-linecap="round" stroke-linejoin="round" stroke-width="10" vectornator:layerName="Curve 58"/>
<path d="M2241.97 488.95C2233.54 520.323 2219.14 466.422 2236.24 462.136C2249.19 458.887 2270.09 523.765 2223.51 502.996C2186.55 486.52 2249.52 460.69 2261.7 485.12C2266.49 494.726 2225.31 502.365 2229.87 474.905C2232.1 461.493 2250.16 479.166 2247.7 491.504C2244.32 508.422 2213.94 499.87 2220.96 478.735C2228.71 455.417 2269.91 458.858 2261.7 487.674C2255.83 508.259 2213.28 492.916 2219.69 473.628C2224.05 460.49 2264.62 458.99 2261.7 473.628C2260.47 479.772 2240.71 481.724 2236.24 478.735C2230.73 475.049 2240.02 474.652 2240.06 474.905C2241.32 483.334 2242.79 485.896 2241.97 488.95Z" fill="none" opacity="1" stroke="#000000" stroke-linecap="round" stroke-linejoin="round" stroke-width="10" vectornator:layerName="Curve 59"/>
<path d="M1812.95 218.249C1796.24 246.428 1790.3 173.633 1821.23 182.495C1858.98 193.315 1816.1 247.544 1797.04 209.31C1789.51 194.204 1824.18 189.42 1831.41 199.095C1847.11 220.082 1808.36 245.413 1793.22 227.187C1777.05 207.724 1817.63 179.238 1833.96 190.157C1860.11 207.643 1814.99 226.494 1799.59 222.079C1774.6 214.917 1800.4 173.326 1818.68 182.495C1844.98 195.684 1818.95 245.838 1789.4 231.018C1764.66 218.611 1838.55 175.107 1812.95 218.249Z" fill="none" opacity="1" stroke="#000000" stroke-linecap="round" stroke-linejoin="round" stroke-width="10" vectornator:layerName="Curve 60"/>
<path d="M1921.16 224.633C1917.69 251.4 1868.44 195.847 1897.61 181.219C1915.37 172.311 1949.36 192.851 1937.07 214.418C1920.06 244.288 1875.01 209.566 1897.61 191.434C1914.86 177.593 1935.81 220.158 1919.25 228.464C1891.78 242.244 1878.23 192.464 1907.8 185.049C1928.11 179.954 1946.5 210.548 1925.62 219.525C1903.9 228.862 1884.49 205.461 1907.8 191.434C1926.8 179.995 1945.92 212.671 1928.16 223.356C1913.96 231.904 1897.5 203.759 1911.61 195.264C1929.33 184.606 1930.24 223.356 1915.43 223.356C1908.55 223.356 1894.63 218.557 1900.16 209.31C1909.5 193.686 1939.51 200.585 1929.44 220.802C1928.36 222.954 1926.27 223.668 1924.34 224.633C1903.6 235.037 1920.04 184.367 1921.8 214.418C1922.17 220.805 1921.54 221.701 1921.16 224.633Z" fill="none" opacity="1" stroke="#000000" stroke-linecap="round" stroke-linejoin="round" stroke-width="10" vectornator:layerName="Curve 61"/>
<path d="M1612.45 389.353C1595.94 381.071 1632.32 329.989 1658.28 362.538C1674.28 382.6 1618.81 390.597 1616.27 377.86C1612.93 361.117 1649.14 370.886 1641.73 393.183C1637.16 406.946 1605.77 408.835 1600.99 394.46C1593.69 372.494 1638.17 355.3 1649.37 374.03C1660.39 392.455 1619.75 407.481 1613.72 389.353C1607.64 371.052 1639.57 354.65 1650.64 370.199C1668.37 395.088 1620.95 412.984 1604.81 400.845C1588.63 388.668 1637.58 346.881 1651.92 361.261C1671.19 380.598 1629.46 417.902 1612.45 400.845C1597.18 385.524 1627.07 349.752 1644.28 361.261C1674.32 381.35 1621.11 405.207 1615 386.799C1611.32 375.746 1634.18 361.844 1643 368.922C1659.95 382.524 1636.72 414.442 1621.36 402.122C1595.56 381.416 1656.72 356.725 1643 384.245" fill="none" opacity="1" stroke="#000000" stroke-linecap="round" stroke-linejoin="round" stroke-width="10" vectornator:layerName="Curve 62"/>
<path d="M1625.18 492.143C1598.6 505.476 1623.25 455.751 1635.37 455.751C1646.04 455.751 1653.67 485.851 1644.28 491.504C1625.94 502.539 1603.67 468.722 1620.09 462.136C1640.97 453.757 1649.73 521.6 1606.09 495.335C1587.39 484.085 1615.84 457.875 1632.82 468.52C1654.53 482.132 1620.44 508.5 1603.54 501.719C1588.93 495.857 1617.42 449.175 1640.46 483.843C1642.47 486.872 1645.55 491.496 1644.28 495.335C1642.41 500.958 1628.8 500.568 1623.91 499.166C1593.46 490.439 1613.58 449.267 1632.82 462.136C1651.67 474.742 1645.48 510.63 1620.09 500.442C1604.51 494.191 1616.3 460.235 1630.27 467.243C1643.06 473.656 1633.66 493.63 1620.09 490.227C1606.53 486.828 1624.02 473.699 1631.55 478.735C1636.59 482.105 1627.11 494.058 1623.91 494.058C1611.62 494.058 1648.32 466.613 1631.55 485.12C1627.91 489.128 1626.45 491.504 1625.18 492.143Z" fill="none" opacity="1" stroke="#000000" stroke-linecap="round" stroke-linejoin="round" stroke-width="10" vectornator:layerName="Curve 63"/>
<path d="M1823.14 358.069C1796.69 375.811 1811.98 337.133 1825.05 331.892C1831.2 329.424 1850.36 360.13 1846.69 363.815C1825.89 384.682 1808.23 307.027 1837.78 326.785C1855.01 338.305 1850.77 373.01 1826.32 368.922C1806.13 365.547 1809.92 326.303 1831.41 330.615C1862.14 336.78 1834.14 376.083 1811.04 358.707C1792.11 344.463 1853.75 312.491 1842.87 356.153C1837.37 378.216 1791.75 340.104 1832.69 331.892C1836.3 331.167 1839.53 334.408 1841.6 337C1852.5 350.676 1836.04 367.613 1822.5 357.43C1814.65 351.523 1821.65 341.94 1827.59 339.554C1835.81 336.258 1835.88 352.648 1832.69 351.046C1829.4 349.396 1837.78 334.978 1837.78 345.938C1837.78 355.569 1824.28 357.3 1823.14 358.069Z" fill="none" opacity="1" stroke="#000000" stroke-linecap="round" stroke-linejoin="round" stroke-width="10" vectornator:layerName="Curve 64"/>
<path d="M1825.05 503.635C1807.66 525.864 1806.58 473.112 1823.77 480.012C1847.81 489.655 1825.79 520.341 1813.59 508.104C1802.01 496.49 1811.89 465.751 1830.14 474.905C1863.76 491.764 1806.51 525.529 1802.13 499.166C1796.8 467.098 1845.76 476.59 1837.78 496.612C1834.73 504.261 1805.18 514.202 1803.41 501.719C1801.35 487.267 1824.52 464.983 1836.51 480.012C1849.37 496.143 1821.46 503.452 1814.86 490.227C1807.22 474.893 1849.52 473.048 1837.78 496.612C1835.39 501.401 1821.6 507.931 1818.68 499.166C1816.42 492.367 1827.35 475.36 1835.23 481.289C1853.6 495.108 1804.71 495.959 1828.87 483.843C1831.27 482.639 1833.87 480.761 1836.51 481.289C1845.25 483.043 1827.78 500.137 1825.05 503.635Z" fill="none" opacity="1" stroke="#000000" stroke-linecap="round" stroke-linejoin="round" stroke-width="10" vectornator:layerName="Curve 65"/>
<path d="M1753.76 658.778C1758.49 649.277 1768.2 613.78 1785.58 626.855C1806.27 642.42 1773.31 678.386 1756.3 661.331C1732.16 637.119 1787.62 596.205 1795.77 637.07C1799.06 653.604 1754.05 669.487 1746.12 656.224C1736.13 639.517 1779.87 618.163 1788.13 631.963C1795.8 644.792 1784.06 672.319 1767.76 660.054C1758.64 653.193 1763.95 621.751 1779.22 625.578C1795.83 629.743 1776.93 672.313 1760.12 649.839C1750.19 636.548 1786.23 623.049 1790.68 631.963C1796.99 644.632 1773.15 654.119 1767.76 646.009C1764.71 641.416 1785.17 635.382 1788.13 638.347C1792.48 642.706 1779.39 657.67 1776.67 654.947C1774.05 652.32 1785.58 630.566 1785.58 643.455" fill="none" opacity="1" stroke="#000000" stroke-linecap="round" stroke-linejoin="round" stroke-width="10" vectornator:layerName="Curve 66"/>
<path d="M1874.7 642.816C1865.24 671.609 1838.75 620.593 1858.15 612.809C1871.06 607.626 1902.83 639.769 1863.24 651.116C1860.49 651.904 1854.67 653.843 1851.78 652.393C1836.99 644.977 1865.2 615.13 1878.52 620.471C1890.25 625.177 1897.48 648.606 1882.33 653.67C1865.86 659.179 1848.58 642.875 1854.33 625.578C1860.47 607.098 1898.38 608.448 1892.52 631.963C1891.26 636.995 1884.4 640.24 1879.79 640.901C1835.45 647.254 1867.15 606.463 1879.79 611.532C1897.81 618.763 1880.1 659.839 1863.24 648.562C1853.47 642.031 1862 614.413 1875.97 617.917C1880.89 619.151 1890.1 640.851 1883.61 643.455C1875.13 646.856 1857.13 632.828 1867.06 626.855C1872.27 623.719 1884.19 631.382 1879.79 635.793C1875.36 640.239 1868.76 631.548 1870.88 635.793C1873.28 640.609 1875.7 639.757 1874.7 642.816Z" fill="none" opacity="1" stroke="#000000" stroke-linecap="round" stroke-linejoin="round" stroke-width="10" vectornator:layerName="Curve 67"/>
<path d="M2251.51 637.709C2233.28 635.932 2263.35 600.122 2268.06 633.24C2270.6 651.011 2246.02 662.064 2234.97 647.285C2224.75 633.623 2249.61 624.946 2259.15 630.686C2279.88 643.16 2256.08 672.974 2246.42 660.054C2224.41 630.613 2286.08 605.657 2276.98 642.178C2272.46 660.299 2227.61 648.087 2242.6 623.024C2253.94 604.08 2272.92 626.044 2265.52 640.901C2257.78 656.416 2231.96 646.554 2236.24 629.409C2242.16 605.662 2280.3 629.128 2271.88 646.009C2266.43 656.943 2235.24 646.876 2242.6 635.793C2246.92 629.296 2277.57 625.669 2271.88 637.07C2266.34 648.196 2253.06 637.859 2251.51 637.709Z" fill="none" opacity="1" stroke="#000000" stroke-linecap="round" stroke-linejoin="round" stroke-width="10" vectornator:layerName="Curve 68"/>
<path d="M2341.9 660.054C2344.85 690.314 2317.59 636.622 2324.08 626.855C2334.76 610.783 2361 632.585 2361 646.009C2361 669.726 2315.77 641.238 2341.9 628.132C2343.72 627.221 2347.41 625.786 2349.54 626.855C2367.98 636.106 2352.45 670.489 2332.99 658.778C2313.42 646.998 2340.79 618.461 2357.18 621.748C2382.71 626.869 2358.23 682.821 2330.44 654.947C2322.67 647.149 2339.38 623.037 2349.54 628.132C2365.76 636.269 2362.86 675.036 2338.08 662.608C2321.09 654.089 2352.55 622.216 2361 630.686C2368.67 638.382 2360.75 665.162 2348.27 665.162C2329.54 665.162 2326.86 628.69 2349.54 633.24C2357.29 634.794 2361.67 651.486 2357.18 657.501C2354.5 661.083 2344.45 661.651 2340.63 658.778C2339.11 657.635 2337.3 651.937 2338.08 653.67C2340.59 659.218 2341.43 655.225 2341.9 660.054Z" fill="none" opacity="1" stroke="#000000" stroke-linecap="round" stroke-linejoin="round" stroke-width="10" vectornator:layerName="Curve 69"/>
<path d="M2248.97 227.187C2250.21 250.036 2216.6 223.651 2227.33 209.31C2241.37 190.529 2269.17 232.266 2246.42 228.464C2241.96 227.718 2234.21 227.449 2231.15 223.356C2222.07 211.224 2246.02 187.952 2257.88 192.711C2284.91 203.554 2258.62 241.828 2238.78 225.91C2224.77 214.668 2241.89 187.703 2255.33 197.818C2270.4 209.154 2256.91 239.862 2240.06 227.187C2223.74 214.913 2245.6 185.92 2260.43 197.818C2272.4 207.423 2262.93 229.73 2247.7 225.91C2235.05 222.739 2249.85 193.727 2261.7 201.649C2274.81 210.42 2256.79 238.866 2241.33 223.356C2233.48 215.48 2266.17 202.986 2270.61 220.802C2271.34 223.72 2270.56 223.633 2268.06 224.633C2254.66 230.012 2248.18 212.814 2248.97 227.187Z" fill="none" opacity="1" stroke="#000000" stroke-linecap="round" stroke-linejoin="round" stroke-width="10" vectornator:layerName="Curve 70"/>
<path d="M2334.9 236.125C2325.49 249.677 2315.74 208.209 2326.62 205.48C2337.51 202.749 2348.22 225.13 2343.17 233.571C2341.35 236.623 2332.17 237.402 2329.17 237.402C2301.75 237.402 2321.96 204.418 2334.26 210.587C2349.49 218.224 2336.85 247.115 2320.26 243.786C2302.21 240.166 2332.19 200.846 2344.45 213.141C2354.67 223.397 2345.7 249.141 2329.17 242.51C2313.2 236.104 2330.73 208.224 2341.9 215.695C2355.52 224.8 2332.36 246.989 2320.26 234.848C2314.44 229.01 2333.01 220.827 2338.08 225.91C2348.2 236.055 2338.36 231.147 2334.9 236.125Z" fill="none" opacity="1" stroke="#000000" stroke-linecap="round" stroke-linejoin="round" stroke-width="10" vectornator:layerName="Curve 71"/>
<path d="M2505.48 395.737C2490.43 409.766 2509.04 368.564 2521.4 377.86C2527.92 382.77 2523.33 407.765 2512.49 405.952C2492.93 402.683 2495.84 359.933 2518.85 371.476C2541.89 383.029 2523.68 414.714 2504.85 402.122C2494.82 395.414 2502.94 365.986 2516.31 374.03C2540.12 388.361 2515.15 417.505 2494.66 407.229C2472.27 395.999 2509.85 365.371 2522.67 386.799C2528.25 396.134 2517.16 408.648 2507.39 402.122C2499.51 396.85 2510.09 380.939 2515.03 384.245C2525.24 391.073 2504.9 411.097 2494.66 403.398C2483.37 394.898 2495.62 387.516 2503.58 385.522C2513.76 382.969 2513.48 388.29 2505.48 395.737Z" fill="none" opacity="1" stroke="#000000" stroke-linecap="round" stroke-linejoin="round" stroke-width="10" vectornator:layerName="Curve 72"/>
<path d="M2525.85 483.843C2537.6 494.821 2520.66 490.032 2520.12 488.95C2516.27 481.225 2516.37 458.29 2526.49 455.751C2544.01 451.358 2542.93 489.44 2527.76 486.397C2506.59 482.149 2526.48 439.135 2544.31 465.966C2560.12 489.749 2507.08 506.189 2503.58 485.12C2501.73 474.005 2520.84 445.033 2530.31 460.859C2541.36 479.329 2517.49 502.064 2511.21 480.012C2506.45 463.303 2543.04 455.952 2543.04 471.074C2543.04 491.907 2488.63 499.098 2494.66 474.905C2496.96 465.699 2516.5 466.432 2522.67 471.074C2539.91 484.04 2510.14 469.157 2525.85 483.843Z" fill="none" opacity="1" stroke="#000000" stroke-linecap="round" stroke-linejoin="round" stroke-width="10" vectornator:layerName="Curve 73"/>
</g>
</svg>
