<?xml version="1.0" encoding="UTF-8" standalone="no"?>
<!DOCTYPE svg PUBLIC "-//W3C//DTD SVG 1.1//EN" "http://www.w3.org/Graphics/SVG/1.1/DTD/svg11.dtd">
<!-- Created with Vectornator (http://vectornator.io/) -->
<svg height="100%" stroke-miterlimit="10" style="fill-rule:nonzero;clip-rule:evenodd;stroke-linecap:round;stroke-linejoin:round;" version="1.1" viewBox="0 0 2491.32 762.194" width="100%" xml:space="preserve" xmlns="http://www.w3.org/2000/svg" xmlns:vectornator="http://vectornator.io" xmlns:xlink="http://www.w3.org/1999/xlink">
<defs/>
<g id="Layer-1" vectornator:layerName="Layer 1">
<path d="M214.853 321.016C228.944 317.002 198.988 310.109 187.915 315.03C161.165 326.919 130.832 392.425 163.969 412.307C200.429 434.183 284.921 413.934 292.675 367.41C297.111 340.792 257.839 322.873 238.798 316.527C235.929 315.57 205.033 314.969 207.37 316.527C212.228 319.766 211.461 321.983 214.853 321.016Z" fill="none" opacity="1" stroke="#000000" stroke-linecap="round" stroke-linejoin="round" stroke-width="10" vectornator:layerName="Curve 1"/>
<path d="M214.853 437.749C213.496 435.035 215.39 425.891 216.35 428.77C223.313 449.66 215.565 496.972 208.867 517.068" fill="none" opacity="1" stroke="#000000" stroke-linecap="round" stroke-linejoin="round" stroke-width="10" vectornator:layerName="Curve 2"/>
<path d="M225.329 446.729C222.458 445.293 167.94 503.141 163.969 511.081" fill="none" opacity="1" stroke="#000000" stroke-linecap="round" stroke-linejoin="round" stroke-width="10" vectornator:layerName="Curve 3"/>
<path d="M231.315 443.736C217.406 471.553 250.771 503.744 250.771 532.033" fill="none" opacity="1" stroke="#000000" stroke-linecap="round" stroke-linejoin="round" stroke-width="10" vectornator:layerName="Curve 4"/>
<path d="M201.384 521.557C194.481 518.106 188.149 558.386 184.922 566.455C176.16 588.358 162.6 609.602 151.997 630.807" fill="none" opacity="1" stroke="#000000" stroke-linecap="round" stroke-linejoin="round" stroke-width="10" vectornator:layerName="Curve 5"/>
<path d="M208.867 527.544C208.867 561.078 231.436 592.258 241.791 623.324" fill="none" opacity="1" stroke="#000000" stroke-linecap="round" stroke-linejoin="round" stroke-width="10" vectornator:layerName="Curve 6"/>
<path d="M1274.11 327.842C1288.2 323.828 1258.24 316.935 1247.17 321.856C1220.42 333.745 1190.09 399.251 1223.23 419.133C1259.68 441.009 1344.18 420.76 1351.93 374.236C1356.37 347.618 1317.09 329.7 1298.05 323.353C1295.19 322.396 1264.29 321.795 1266.63 323.353C1271.48 326.592 1270.72 328.809 1274.11 327.842Z" fill="none" opacity="1" stroke="#000000" stroke-linecap="round" stroke-linejoin="round" stroke-width="10" vectornator:layerName="Curve 7"/>
<path d="M1274.11 444.575C1272.75 441.861 1274.65 432.717 1275.61 435.596C1282.57 456.486 1274.82 503.798 1268.12 523.894" fill="none" opacity="1" stroke="#000000" stroke-linecap="round" stroke-linejoin="round" stroke-width="10" vectornator:layerName="Curve 8"/>
<path d="M1284.59 453.555C1281.71 452.119 1227.2 509.967 1223.23 517.907" fill="none" opacity="1" stroke="#000000" stroke-linecap="round" stroke-linejoin="round" stroke-width="10" vectornator:layerName="Curve 9"/>
<path d="M1290.57 450.562C1276.66 478.379 1310.03 510.57 1310.03 538.859" fill="none" opacity="1" stroke="#000000" stroke-linecap="round" stroke-linejoin="round" stroke-width="10" vectornator:layerName="Curve 10"/>
<path d="M1260.64 528.383C1253.74 524.932 1247.41 565.212 1244.18 573.281C1235.42 595.184 1221.86 616.428 1211.25 637.633" fill="none" opacity="1" stroke="#000000" stroke-linecap="round" stroke-linejoin="round" stroke-width="10" vectornator:layerName="Curve 11"/>
<path d="M1268.12 534.37C1268.12 567.904 1290.69 599.084 1301.05 630.15" fill="none" opacity="1" stroke="#000000" stroke-linecap="round" stroke-linejoin="round" stroke-width="10" vectornator:layerName="Curve 12"/>
<path d="M2204.92 344.429C2219.01 340.415 2189.05 333.522 2177.98 338.443C2151.23 350.332 2120.9 415.838 2154.03 435.72C2190.49 457.596 2274.99 437.346 2282.74 390.823C2287.18 364.205 2247.9 346.286 2228.86 339.94C2225.99 338.983 2195.1 338.381 2197.44 339.94C2202.29 343.178 2201.53 345.396 2204.92 344.429Z" fill="none" opacity="1" stroke="#000000" stroke-linecap="round" stroke-linejoin="round" stroke-width="10" vectornator:layerName="Curve 34"/>
<path d="M2204.92 461.162C2203.56 458.448 2205.46 449.304 2206.41 452.183C2213.38 473.073 2205.63 520.385 2198.93 540.481" fill="none" opacity="1" stroke="#000000" stroke-linecap="round" stroke-linejoin="round" stroke-width="10" vectornator:layerName="Curve 35"/>
<path d="M2215.39 470.142C2212.52 468.706 2158 526.554 2154.03 534.494" fill="none" opacity="1" stroke="#000000" stroke-linecap="round" stroke-linejoin="round" stroke-width="10" vectornator:layerName="Curve 36"/>
<path d="M2221.38 467.148C2207.47 494.966 2240.84 527.157 2240.84 555.446" fill="none" opacity="1" stroke="#000000" stroke-linecap="round" stroke-linejoin="round" stroke-width="10" vectornator:layerName="Curve 37"/>
<path d="M2191.45 544.97C2184.55 541.519 2178.21 581.799 2174.99 589.868C2166.23 611.771 2152.67 633.015 2142.06 654.22" fill="none" opacity="1" stroke="#000000" stroke-linecap="round" stroke-linejoin="round" stroke-width="10" vectornator:layerName="Curve 38"/>
<path d="M2198.93 550.957C2198.93 584.491 2221.5 615.671 2231.86 646.737" fill="none" opacity="1" stroke="#000000" stroke-linecap="round" stroke-linejoin="round" stroke-width="10" vectornator:layerName="Curve 39"/>
<path d="M211.86 274.623C195.635 271.378 181.129 263.192 163.969 265.643C94.9167 275.508 49.365 376.457 41.2504 433.259C35.6366 472.556 29.9694 514.602 33.7675 554.482C45.4313 676.952 164.95 764.131 285.192 734.071C404.138 704.335 452.325 517.607 412.401 413.804C397.067 373.936 364.779 348.927 333.082 322.513C309.15 302.569 282.384 273.143 249.274 270.133C213.721 266.901 178.459 284.589 147.507 300.064" fill="none" opacity="1" stroke="#000000" stroke-linecap="round" stroke-linejoin="round" stroke-width="10" vectornator:layerName="Curve 25"/>
<path d="M443.829 204.284C393.271 204.284 347.916 221.273 334.579 274.623C331.567 286.669 327.696 300.664 337.572 310.54" fill="none" opacity="1" stroke="#000000" stroke-linecap="round" stroke-linejoin="round" stroke-width="10" vectornator:layerName="Curve 26"/>
<path d="M309.137 258.16C298.744 278.947 322.867 323.717 348.048 319.52C362.973 317.032 379.288 286.972 385.463 274.623" fill="none" opacity="1" stroke="#000000" stroke-linecap="round" stroke-linejoin="round" stroke-width="10" vectornator:layerName="Curve 27"/>
<path d="M469.271 171.359C465.254 163.325 452.892 210.557 484.236 216.256C520.266 222.807 518.028 170.02 506.685 172.856C502.753 173.839 518.025 205.59 518.658 207.277C525.492 225.502 541.474 263.976 533.623 283.602C523.598 308.666 458.78 294.093 481.243 271.629" fill="none" opacity="1" stroke="#000000" stroke-linecap="round" stroke-linejoin="round" stroke-width="10" vectornator:layerName="Curve 28"/>
<path d="M551.582 213.263C555.554 217.372 556.922 255.555 580.017 241.698C619.082 218.259 520.744 181.36 551.582 213.263Z" fill="none" opacity="1" stroke="#000000" stroke-linecap="round" stroke-linejoin="round" stroke-width="10" vectornator:layerName="Curve 29"/>
<path d="M588.997 216.256C599.308 216.256 604.675 224.957 614.438 226.732C654.944 234.097 649.821 198.724 638.384 175.849" fill="none" opacity="1" stroke="#000000" stroke-linecap="round" stroke-linejoin="round" stroke-width="10" vectornator:layerName="Curve 30"/>
<path d="M901.781 501.694C901.781 460.968 933.608 427.954 972.868 427.954C1012.13 427.954 1043.96 460.968 1043.96 501.694C1043.96 542.419 1012.13 575.434 972.868 575.434C933.608 575.434 901.781 542.419 901.781 501.694Z" fill="#ffe433" fill-rule="nonzero" opacity="1" stroke="#000000" stroke-linecap="butt" stroke-linejoin="round" stroke-width="10" vectornator:layerName="Oval 1"/>
<path d="M945.93 484.143C941.261 477.357 954.161 475.636 954.161 490.129C954.161 491.245 953.78 493.122 952.664 493.122C949.048 493.122 951.308 481.29 954.161 484.143C965.449 495.431 935.653 485.166 946.678 479.653C952.378 476.803 956.515 488.094 954.161 491.626C951.272 495.959 948.245 481.793 949.671 479.653C953.176 474.395 959.371 485.03 958.651 488.633C956.933 497.22 942.188 488.611 942.188 482.646C942.188 478.529 948.706 478.423 951.168 479.653C961.519 484.829 958.416 502.291 945.93 484.143Z" fill="none" opacity="1" stroke="#000000" stroke-linecap="round" stroke-linejoin="round" stroke-width="10" vectornator:layerName="Curve 31"/>
<path d="M994.568 487.136C1004.63 497.786 987.803 466.122 999.058 488.633C1001.53 493.573 993.487 495.678 990.079 493.122C984.558 488.982 989.975 478.157 996.065 478.157C1000.09 478.157 1000.86 491.318 999.058 493.122C994.578 497.602 984.561 487.65 991.575 484.143C996.521 481.67 999.399 487.951 997.561 491.626C996.695 493.358 987.634 479.795 994.568 487.136Z" fill="none" opacity="1" stroke="#000000" stroke-linecap="round" stroke-linejoin="round" stroke-width="10" vectornator:layerName="Curve 32"/>
<path d="M951.168 526.047C942.089 544.204 982.52 569.599 1002.05 530.537" fill="none" opacity="1" stroke="#000000" stroke-linecap="round" stroke-linejoin="round" stroke-width="10" vectornator:layerName="Curve 33"/>
<path d="M1792.26 516.114C1792.26 475.389 1824.09 442.374 1863.35 442.374C1902.61 442.374 1934.44 475.389 1934.44 516.114C1934.44 556.84 1902.61 589.854 1863.35 589.854C1824.09 589.854 1792.26 556.84 1792.26 516.114Z" fill="#ffe433" fill-rule="nonzero" opacity="1" stroke="#000000" stroke-linecap="butt" stroke-linejoin="round" stroke-width="10" vectornator:layerName="Oval 2"/>
<path d="M1836.41 498.563C1831.74 491.778 1844.64 490.057 1844.64 504.55C1844.64 505.665 1844.26 507.543 1843.15 507.543C1839.53 507.543 1841.79 495.71 1844.64 498.563C1855.93 509.851 1826.13 499.586 1837.16 494.074C1842.86 491.223 1847 502.514 1844.64 506.046C1841.75 510.38 1838.73 496.213 1840.15 494.074C1843.66 488.816 1849.85 499.451 1849.13 503.053C1847.41 511.64 1832.67 503.032 1832.67 497.067C1832.67 492.95 1839.19 492.843 1841.65 494.074C1852 499.249 1848.9 516.711 1836.41 498.563Z" fill="none" opacity="1" stroke="#000000" stroke-linecap="round" stroke-linejoin="round" stroke-width="10" vectornator:layerName="Curve 46"/>
<path d="M1885.05 501.557C1895.11 512.206 1878.28 480.543 1889.54 503.053C1892.01 507.993 1883.97 510.099 1880.56 507.543C1875.04 503.403 1880.46 492.577 1886.55 492.577C1890.58 492.577 1891.34 505.738 1889.54 507.543C1885.06 512.023 1875.04 502.071 1882.06 498.563C1887 496.09 1889.88 502.372 1888.04 506.046C1887.18 507.779 1878.12 494.216 1885.05 501.557Z" fill="none" opacity="1" stroke="#000000" stroke-linecap="round" stroke-linejoin="round" stroke-width="10" vectornator:layerName="Curve 47"/>
<path d="M1841.65 540.467C1832.57 558.624 1873 584.019 1892.53 544.957" fill="none" opacity="1" stroke="#000000" stroke-linecap="round" stroke-linejoin="round" stroke-width="10" vectornator:layerName="Curve 48"/>
<path d="M981.099 391.355C960.36 349.878 994.445 315.611 1024.5 295.575" fill="none" opacity="1" stroke="#000000" stroke-linecap="round" stroke-linejoin="round" stroke-width="10" vectornator:layerName="Curve 49"/>
<path d="M960.147 374.893C955.999 366.597 986.275 403.91 990.079 398.838C999.884 385.764 993.59 365.395 1006.54 352.444" fill="none" opacity="1" stroke="#000000" stroke-linecap="round" stroke-linejoin="round" stroke-width="10" vectornator:layerName="Curve 50"/>
<path d="M897.291 216.256C893.425 208.524 900.863 230.425 901.781 232.719C905.573 242.199 918.243 281.642 918.243 271.629" fill="none" opacity="1" stroke="#000000" stroke-linecap="round" stroke-linejoin="round" stroke-width="10" vectornator:layerName="Curve 51"/>
<path d="M907.767 244.691C913.984 232.256 931.372 222.412 943.685 216.256" fill="none" opacity="1" stroke="#000000" stroke-linecap="round" stroke-linejoin="round" stroke-width="10" vectornator:layerName="Curve 52"/>
<path d="M927.222 198.297C922.25 193.325 951.065 277.924 954.161 268.636" fill="none" opacity="1" stroke="#000000" stroke-linecap="round" stroke-linejoin="round" stroke-width="10" vectornator:layerName="Curve 53"/>
<path d="M960.147 237.208C940.212 237.208 957.743 258.682 967.63 261.153C974.405 262.847 967.63 240.201 967.63 240.201C967.63 240.201 982.163 255.167 991.575 255.167" fill="none" opacity="1" stroke="#000000" stroke-linecap="round" stroke-linejoin="round" stroke-width="10" vectornator:layerName="Curve 54"/>
<path d="M1005.79 236.46C1002.81 235.37 1001.98 230.976 999.058 229.725C994.337 227.702 1003.69 238.921 1006.54 243.195C1011.74 250.993 1018.51 268.636 1018.51 268.636C1018.51 268.636 1017.14 262.362 1015.52 259.657C1010.37 251.075 999.129 221.441 1008.04 214.76C1026.48 200.929 1043.47 250.24 1005.79 236.46Z" fill="none" opacity="1" stroke="#000000" stroke-linecap="round" stroke-linejoin="round" stroke-width="10" vectornator:layerName="Curve 55"/>
<path d="M1050.69 221.494C1039.61 214.522 1058.6 247.044 1063.41 256.664C1063.49 256.818 1067.71 264.147 1064.91 264.147C1060.65 264.147 1062.06 256.108 1060.42 252.174C1057.67 245.591 1036.89 203.95 1051.44 199.794C1077.93 192.225 1085.08 243.141 1050.69 221.494Z" fill="none" opacity="1" stroke="#000000" stroke-linecap="round" stroke-linejoin="round" stroke-width="10" vectornator:layerName="Curve 56"/>
<path d="M1090.35 219.249C1094.26 229.031 1100.27 236.508 1106.81 244.691" fill="none" opacity="1" stroke="#000000" stroke-linecap="round" stroke-linejoin="round" stroke-width="10" vectornator:layerName="Curve 57"/>
<path d="M1082.87 189.318C1079.37 182.334 1078.88 185.327 1081.37 180.338" fill="none" opacity="1" stroke="#000000" stroke-linecap="round" stroke-linejoin="round" stroke-width="10" vectornator:layerName="Curve 58"/>
<path d="M1114.29 207.277C1110.74 214.384 1114.08 219.585 1118.78 225.236C1120.83 227.69 1125.49 234.321 1126.27 231.222C1128.7 221.479 1119.91 205.424 1118.78 195.304C1115.32 164.132 1137.42 216.937 1145.72 225.236" fill="none" opacity="1" stroke="#000000" stroke-linecap="round" stroke-linejoin="round" stroke-width="10" vectornator:layerName="Curve 59"/>
<path d="M1147.22 210.27C1169.75 199.003 1157.73 176.301 1150.21 186.325C1137.82 202.844 1178.65 238.7 1189.12 217.753" fill="none" opacity="1" stroke="#000000" stroke-linecap="round" stroke-linejoin="round" stroke-width="10" vectornator:layerName="Curve 60"/>
<path d="M1189.12 175.849C1177.65 164.377 1174.63 188.297 1180.14 193.808C1186.11 199.777 1207.67 183.015 1211.57 190.814C1216.59 200.847 1181.14 221.245 1192.12 210.27" fill="none" opacity="1" stroke="#000000" stroke-linecap="round" stroke-linejoin="round" stroke-width="10" vectornator:layerName="Curve 61"/>
<path d="M1219.05 172.856C1215.46 171.057 1214.34 158.564 1213.07 162.38C1205.92 183.821 1267.64 178.124 1234.02 198.297C1228.04 201.883 1222.31 205.647 1216.06 208.773" fill="none" opacity="1" stroke="#000000" stroke-linecap="round" stroke-linejoin="round" stroke-width="10" vectornator:layerName="Curve 62"/>
<path d="M2219.49 312.148C2219.49 303.055 2197.36 246.299 2204.52 246.299" fill="none" opacity="1" stroke="#000000" stroke-linecap="round" stroke-linejoin="round" stroke-width="10" vectornator:layerName="Curve 67"/>
<path d="M2228.46 309.155C2228.46 291.408 2240.65 268.103 2246.42 250.789" fill="none" opacity="1" stroke="#000000" stroke-linecap="round" stroke-linejoin="round" stroke-width="10" vectornator:layerName="Curve 68"/>
<path d="M2207.51 243.306C2184.37 254.876 2143.37 226.748 2125.2 216.368C2110.11 207.745 2088.82 202.073 2075.81 190.926C2031.99 153.363 2060.58 101.073 2099.76 78.6828C2160.48 43.9849 2261.69 20.187 2330.23 39.7718C2345.79 44.2171 2369.44 55.0324 2381.12 66.7102C2401.38 86.9751 2453.2 170.64 2433.5 196.912C2401 240.236 2342.68 241.48 2295.81 249.292C2289.07 250.415 2281.9 256.687 2274.86 255.279C2267.51 253.808 2267.29 244.803 2261.39 244.803" fill="none" opacity="1" stroke="#000000" stroke-linecap="round" stroke-linejoin="round" stroke-width="10" vectornator:layerName="Curve 69"/>
<path d="M2156.63 93.6485C2137.4 74.4229 2128.44 108.855 2129.69 110.111C2134.94 115.362 2155.49 106.221 2158.13 99.6348C2160.63 93.3671 2148.35 86.6923 2153.64 90.6554C2166.22 100.092 2185.61 133.144 2176.08 149.022C2171.51 156.644 2153.64 149.785 2153.64 141.539" fill="none" opacity="1" stroke="#000000" stroke-linecap="round" stroke-linejoin="round" stroke-width="10" vectornator:layerName="Curve 70"/>
<path d="M2189.55 119.09C2189.55 124.695 2188.88 122.241 2191.05 126.573" fill="none" opacity="1" stroke="#000000" stroke-linecap="round" stroke-linejoin="round" stroke-width="10" vectornator:layerName="Curve 71"/>
<path d="M2182.07 81.6759L2180.57 74.193" fill="none" opacity="1" stroke="#000000" stroke-linecap="round" stroke-linejoin="round" stroke-width="10" vectornator:layerName="Curve 72"/>
<path d="M2215 108.614C2203.3 102.768 2213.19 116.066 2215 125.077C2215.49 127.571 2214.22 133.697 2216.49 132.559C2220.67 130.472 2216.44 93.6485 2217.99 93.6485C2221.84 93.6485 2228.43 110.111 2231.46 110.111C2236.12 110.111 2235.8 81.3803 2237.44 84.6691C2242.9 95.5883 2249.55 108.89 2255.4 120.587" fill="none" opacity="1" stroke="#000000" stroke-linecap="round" stroke-linejoin="round" stroke-width="10" vectornator:layerName="Curve 73"/>
<path d="M2268.87 92.1519C2255.94 66.2901 2267.29 119.09 2274.86 119.09C2282.89 119.09 2271.25 83.4785 2277.85 80.1793C2279.52 79.3465 2288.3 105.636 2294.31 102.628C2298.07 100.748 2293.88 85.1007 2297.31 81.6759C2300.78 78.2018 2299.82 91.6709 2303.29 95.1451C2308.3 100.155 2313.37 101.822 2316.76 108.614" fill="none" opacity="1" stroke="#000000" stroke-linecap="round" stroke-linejoin="round" stroke-width="10" vectornator:layerName="Curve 74"/>
<path d="M2336.22 98.1382C2380.22 54.1328 2294.88 98.3639 2331.73 113.104C2344.27 118.121 2358.5 107.118 2370.64 107.118" fill="none" opacity="1" stroke="#000000" stroke-linecap="round" stroke-linejoin="round" stroke-width="10" vectornator:layerName="Curve 75"/>
<path d="M2220.98 204.395C2196.97 156.374 2190.31 254.147 2228.46 222.354C2244.65 208.867 2232.55 184.125 2225.47 169.974C2224.98 168.985 2219.85 160.632 2217.99 162.491C2215.78 164.7 2237.66 218.29 2252.41 213.374" fill="none" opacity="1" stroke="#000000" stroke-linecap="round" stroke-linejoin="round" stroke-width="10" vectornator:layerName="Curve 76"/>
<path d="M2271.87 195.416C2268.28 195.416 2263.27 189.518 2261.39 190.926C2247.35 201.452 2265.99 215.747 2277.85 213.374C2287.43 211.459 2289.16 199.373 2282.34 193.919C2280.6 192.525 2276.36 188.695 2276.36 190.926C2276.36 197.413 2303.95 204.395 2309.28 204.395" fill="none" opacity="1" stroke="#000000" stroke-linecap="round" stroke-linejoin="round" stroke-width="10" vectornator:layerName="Curve 77"/>
<path d="M2301.8 159.498C2301.8 156.463 2301.15 148.373 2303.29 150.518C2305.75 152.977 2304.45 172.548 2306.29 177.457C2309.14 185.055 2337.18 228.764 2327.24 208.885" fill="none" opacity="1" stroke="#000000" stroke-linecap="round" stroke-linejoin="round" stroke-width="10" vectornator:layerName="Curve 78"/>
<path d="M2295.81 178.953C2306.87 176.188 2323.28 174.948 2333.23 169.974" fill="none" opacity="1" stroke="#000000" stroke-linecap="round" stroke-linejoin="round" stroke-width="10" vectornator:layerName="Curve 79"/>
<path d="M1983.8 496.116C1981.84 495.132 1973.63 493.703 1974.82 490.129C1975.66 487.625 2005.58 482.196 2009.25 481.15C2042.88 471.54 2069.82 471.458 2096.05 445.232" fill="none" opacity="1" stroke="#000000" stroke-linecap="round" stroke-linejoin="round" stroke-width="10" vectornator:layerName="Curve 80"/>
<path d="M1991.29 454.212C1991.29 443.414 1968.4 489.474 1971.83 494.619C1973.29 496.81 2018.49 490.396 2027.2 499.109" fill="none" opacity="1" stroke="#000000" stroke-linecap="round" stroke-linejoin="round" stroke-width="10" vectornator:layerName="Curve 81"/>
</g>
</svg>
